<svg width="202" height="367" viewBox="0 0 202 367" fill="none" xmlns="http://www.w3.org/2000/svg">
<g opacity="0.6">
<path opacity="0.1" d="M192.577 192.923C197.781 96.7832 124.063 14.6274 27.9233 9.42309C-68.2166 4.21875 -150.372 77.9366 -155.577 174.076C-160.781 270.216 -87.0632 352.372 9.0767 357.576C105.217 362.781 187.372 289.063 192.577 192.923Z" fill="#FBFCFC"/>
<path d="M17.9139 330.056C99.2688 330.056 165.22 264.105 165.22 182.75C165.22 101.395 99.2688 35.4441 17.9139 35.4441C-63.4409 35.4441 -129.392 101.395 -129.392 182.75C-129.392 264.105 -63.4409 330.056 17.9139 330.056Z" fill="#1B9ABD"/>
<path d="M-1.67329 185.492C-1.28152 185.101 -0.106206 186.276 2.24442 187.06C4.98682 187.843 5.37854 186.668 7.3374 187.451C8.90449 188.235 8.51271 189.018 11.2551 191.761C12.4304 192.936 12.4304 192.544 13.214 193.72C15.1728 195.679 15.5648 197.637 16.3483 197.637C16.7401 197.637 16.7399 197.246 17.1317 196.854C17.9152 196.462 18.6989 197.246 22.6166 199.596C22.6166 199.596 23.0083 199.988 24.5754 201.163C25.359 201.947 25.7507 201.947 25.7507 202.339C25.7507 202.73 25.7507 202.73 24.9671 204.297C24.5753 205.473 24.1837 205.865 24.5754 205.865C24.9672 206.256 26.1424 205.473 26.926 206.256C27.3177 206.648 27.3178 207.04 27.7096 207.823C28.1013 208.999 27.7096 209.391 27.7096 209.782C28.4931 211.349 32.019 210.174 32.8025 211.741C32.8025 212.133 32.8025 212.133 32.8025 212.916C33.1943 214.092 33.9779 214.484 33.5861 214.875C33.5861 215.659 31.6273 215.267 31.6273 216.051C31.6273 216.834 33.1945 217.226 33.1945 218.401C33.1945 219.185 32.019 219.185 31.6273 220.36C31.2355 221.535 31.6274 221.927 31.2356 222.319C30.8438 222.711 29.6684 221.535 27.7096 220.36C26.5342 219.968 26.5342 219.968 25.7507 219.577C24.9672 219.185 24.1836 218.793 21.833 216.834C21.0494 216.051 19.8743 214.875 18.3072 212.916C17.5236 211.741 16.3481 210.566 15.1728 208.607C13.9975 206.648 13.9976 205.865 12.8223 205.081C11.647 203.906 10.4716 203.906 10.0798 203.122C9.68808 201.947 10.0799 201.555 9.68817 199.988C9.68817 199.596 9.29645 198.813 8.51291 198.029C7.33759 197.246 6.554 197.637 5.77046 196.854C4.98692 196.07 5.37874 195.287 4.59519 193.72C4.20342 192.544 3.41974 192.153 2.24442 191.369C0.285565 190.194 -0.497834 190.586 -1.28138 189.41C-2.06492 187.843 -2.45683 185.884 -1.67329 185.492Z" fill="#89C87C"/>
<path d="M31.2356 207.824C31.6274 207.432 32.4108 207.04 32.8025 207.04C33.1943 207.04 33.1943 207.432 33.5861 208.607C33.9779 209.391 33.9779 209.782 34.3697 210.174C35.1532 210.958 35.9369 210.958 35.9369 211.349C35.9369 211.741 35.5451 212.133 35.1533 212.133C34.7615 212.133 34.3698 211.741 33.978 211.349C33.1945 210.566 33.5862 210.566 33.1944 210.174C32.4109 209.391 31.2356 209.782 31.2356 209.391C30.452 208.999 30.8438 208.215 31.2356 207.824Z" fill="#89C87C"/>
<path d="M38.2858 210.174C37.894 210.174 37.5023 210.566 37.1105 210.958C36.7187 211.349 36.3269 212.133 36.3269 212.525C36.7187 212.916 37.5023 213.308 37.8941 213.308C38.6776 213.308 39.0694 212.525 39.0694 211.741C39.0694 210.958 38.6775 210.174 38.2858 210.174Z" fill="#89C87C"/>
<path d="M27.7086 199.205C27.3168 199.205 27.3169 199.596 27.3169 199.988C27.3169 200.38 28.1004 201.163 28.4922 200.772C28.8839 200.772 28.8838 200.38 28.8838 199.988C28.4921 199.596 28.1003 199.205 27.7086 199.205Z" fill="#89C87C"/>
<path d="M27.7109 202.73C27.7109 203.122 27.7109 203.514 27.7109 203.906C28.1027 204.297 28.4944 204.297 28.8862 204.297C29.278 203.906 29.278 203.122 28.8862 202.73C28.8862 202.339 28.1027 202.339 27.7109 202.73Z" fill="#89C87C"/>
<path d="M25.7521 200.38C25.7521 200.38 25.7521 200.772 25.7521 201.163C25.7521 201.555 26.5357 201.555 26.5357 201.555C26.5357 201.555 26.5357 201.163 26.5357 200.772C26.5357 200.38 25.7521 199.988 25.7521 200.38Z" fill="#89C87C"/>
<path d="M27.3169 204.689V205.081C27.3169 205.473 28.1005 205.864 28.1005 205.473L28.4922 205.081C28.4922 204.689 27.3169 204.689 27.3169 204.689Z" fill="#89C87C"/>
<path d="M38.2872 189.802C37.8954 190.194 37.8955 190.585 37.8955 190.585C37.8955 190.977 38.679 191.369 39.0708 191.369C39.4625 191.369 39.8542 190.585 39.4624 189.802C39.4624 189.41 38.679 189.41 38.2872 189.802Z" fill="#89C87C"/>
<path d="M33.1928 192.153C32.801 192.544 32.801 193.72 33.1928 193.72C33.1928 193.72 33.5846 193.328 33.9763 193.328C33.9763 193.328 34.7598 192.544 34.368 192.153C33.9762 192.153 33.5845 192.153 33.1928 192.153Z" fill="#89C87C"/>
<path d="M31.2339 224.278C31.6257 224.67 32.8009 223.494 33.5844 223.886C33.9762 223.886 34.368 224.278 34.368 224.67C34.368 225.062 33.5844 225.062 33.5844 225.453C33.5844 225.845 35.1515 225.061 36.7186 225.845C37.1103 226.237 37.8941 226.629 37.8941 226.237V225.845C37.8941 225.453 39.0693 226.629 40.2446 226.237C40.6364 226.237 40.6364 225.845 41.0282 225.845C41.8117 225.453 42.2035 225.845 42.987 225.845C43.3788 225.845 43.7704 226.237 44.554 226.629C45.3375 227.02 45.3376 227.412 46.1212 227.804C46.9047 228.196 47.2964 228.196 48.4717 227.804C50.0388 227.804 50.0389 227.412 50.8225 227.412C51.606 227.412 51.6059 227.804 52.3894 227.804C53.173 227.804 53.5647 227.804 54.3483 227.804C54.3483 227.804 54.3483 227.804 55.1319 228.196C56.6989 228.587 56.699 228.587 56.699 228.587C57.0908 228.587 57.0908 228.196 57.8743 228.196C58.2661 228.196 59.0497 228.196 59.4415 228.587C59.4415 228.979 59.0496 229.371 59.0496 229.763C59.0496 229.763 59.8332 229.371 60.6168 228.979C61.0085 228.587 61.4002 228.196 61.0084 227.804C61.0084 227.412 59.8333 227.02 59.4415 227.02C59.0497 227.02 59.0497 227.412 58.6579 227.412C58.6579 227.412 57.8744 227.804 57.4826 227.412C57.0909 227.02 57.4825 227.02 57.0907 226.629C56.6989 226.237 56.3072 226.237 55.9154 226.237C53.9566 226.237 52.3894 226.629 52.3894 226.237C52.3894 225.845 52.7812 225.062 53.173 224.67C54.3483 223.886 55.9154 224.67 55.9154 224.278C55.9154 224.278 55.1318 223.886 54.3483 223.494C53.9565 223.494 53.5649 223.103 52.7813 223.103C51.2142 223.103 51.2142 223.494 50.0389 223.494C49.2553 223.494 48.8636 222.711 48.08 223.103C48.08 223.103 47.6882 223.103 47.2964 223.103C46.9047 222.711 47.2964 222.319 47.2964 222.319C47.2964 222.319 46.5128 222.319 46.5128 222.711C46.1211 223.103 46.1213 223.103 45.7295 223.494C45.3377 223.886 44.9459 223.886 44.9459 224.278C44.1624 224.67 43.7705 223.886 42.2035 223.886C41.4199 223.886 41.4199 224.278 40.2446 224.278C39.0693 224.278 39.0692 224.278 38.6774 223.886C38.2856 223.494 38.6774 223.103 38.6774 222.711C38.2856 221.927 37.5022 222.319 35.5433 221.927C33.1927 221.536 32.0174 221.144 31.6256 221.536C31.6256 221.927 31.6256 221.927 31.6256 222.319C31.2338 222.711 30.8421 222.711 30.4503 223.103C30.8421 223.494 30.8421 223.886 31.2339 224.278Z" fill="#89C87C"/>
<path d="M62.577 227.02C62.1852 227.02 61.4017 227.412 61.4017 227.804C61.4017 228.196 61.7934 228.196 61.7934 228.587C61.7934 228.979 61.7934 228.979 61.7934 229.371C61.7934 229.763 63.7523 229.763 63.7523 229.371C63.7523 228.979 63.7522 228.979 62.9687 228.196C62.9687 227.02 62.9688 227.02 62.577 227.02Z" fill="#89C87C"/>
<path d="M65.3187 227.02C65.3187 227.02 64.5352 227.02 64.5352 227.804C64.5352 228.196 64.5351 228.587 64.9268 228.979C65.3186 229.371 65.7103 228.979 66.1021 228.979C66.4939 228.979 66.8857 228.979 66.8857 228.587C66.8857 228.196 67.2775 228.196 66.8857 227.804C66.8857 227.412 66.4939 227.412 66.1021 227.412C65.7103 227.02 65.3187 227.02 65.3187 227.02Z" fill="#89C87C"/>
<path d="M66.8881 225.845C66.8881 225.845 67.28 226.237 67.28 226.628C67.6717 227.02 67.6716 227.412 68.0633 227.412L68.4552 227.02C68.4552 227.02 67.6717 227.804 67.6717 228.196C67.6717 228.587 68.0635 228.587 68.4552 228.587C68.847 228.587 69.2387 228.196 69.6305 228.196C70.4141 227.804 71.1977 228.195 71.1977 227.804C71.1977 227.412 70.8058 227.02 70.8058 227.02C70.414 226.628 69.6306 226.628 69.2388 226.628C68.4553 226.628 68.4552 227.02 67.6717 227.02C67.2799 226.237 66.8881 225.845 66.8881 225.845Z" fill="#89C87C"/>
<path d="M70.4117 229.763C70.4117 229.371 71.5871 228.979 72.3706 229.371C73.1541 229.371 73.5458 229.763 73.9375 229.763C74.7211 230.155 75.113 230.546 75.113 230.938C75.5048 231.33 75.8964 231.722 75.8964 232.113C75.8964 232.505 74.7211 232.505 73.9375 232.113C73.5458 231.722 73.546 231.33 73.1542 230.938C72.3706 230.546 71.1953 230.938 71.1953 230.938H71.587C71.9788 230.938 70.4117 230.155 70.4117 229.763Z" fill="#89C87C"/>
<path d="M60.2262 223.102C59.8345 223.102 59.8346 223.102 59.4429 223.494C59.4429 223.886 60.2263 224.67 61.0098 224.278C61.4016 223.886 61.4017 223.494 61.4017 223.494C61.01 222.711 60.2262 223.102 60.2262 223.102Z" fill="#89C87C"/>
<path d="M73.5452 226.237C73.1534 226.237 73.1534 226.629 72.3699 226.629C71.9781 227.02 71.5863 227.02 71.5863 227.02C71.5863 227.02 72.3698 227.412 72.7616 227.804C73.1533 227.804 73.9368 228.196 75.8957 227.804C77.071 227.412 77.0711 227.412 78.6381 227.412C79.8135 227.02 80.9889 227.02 80.9889 227.02C81.7725 227.02 81.7724 227.02 82.1642 226.629C82.9477 226.629 83.3395 226.237 84.123 225.845C85.6901 225.061 86.8655 225.061 86.8655 225.061C86.8655 225.061 86.0818 225.061 85.2983 225.061C84.123 225.453 84.123 225.845 83.3394 225.845C82.5559 225.845 81.7725 225.453 80.9889 225.845C80.5971 225.845 80.597 225.845 80.597 225.845C80.2052 225.845 80.2052 226.237 79.8134 226.629C79.4216 226.629 79.4218 227.02 79.0301 227.02C78.2465 227.02 78.2464 227.02 77.4629 227.02C77.0711 227.02 77.0711 227.02 76.6793 227.02C76.2875 227.02 75.8959 227.02 75.1123 227.02C73.937 226.237 73.9369 226.237 73.5452 226.237Z" fill="#89C87C"/>
<path d="M80.5977 233.289C80.9895 233.68 82.5566 232.897 82.5566 232.505C82.5566 232.113 82.1648 232.113 81.773 231.721C80.9895 231.721 80.5978 232.113 80.2061 232.897C80.2061 232.897 80.206 232.897 80.5977 233.289Z" fill="#89C87C"/>
<path d="M77.856 232.113C77.4642 232.113 77.0726 232.505 77.0726 232.897C77.0726 233.288 77.8561 233.288 78.2479 233.288C78.6397 232.897 78.2478 232.113 77.856 232.113Z" fill="#89C87C"/>
<path d="M91.5666 224.67C91.1748 224.67 91.1748 225.062 90.3913 225.453C89.9995 225.845 89.216 225.845 88.4325 225.845C87.6489 225.845 87.2573 225.845 86.8655 226.237C86.4737 226.629 86.8654 227.02 86.4736 227.412C86.0818 228.196 84.5147 227.412 83.7311 228.196C83.3394 228.587 82.9478 229.371 82.9478 229.371C82.9478 229.371 82.9477 230.155 82.5559 230.546C82.5559 230.938 82.556 230.938 82.1642 231.33C81.7724 231.722 81.3806 231.33 81.3806 231.722C81.3806 231.722 82.1643 232.113 82.9478 232.113C84.1231 232.113 84.5149 230.938 84.9067 230.546C85.2984 229.763 85.2982 229.763 85.69 229.371C86.0818 228.979 86.4735 228.587 87.6489 228.196C88.8242 227.412 89.2159 227.412 89.6077 227.02C90.3913 226.629 91.1749 226.629 91.1749 226.237C91.9584 225.453 91.9583 224.67 91.5666 224.67Z" fill="#89C87C"/>
<path d="M91.569 222.319C91.569 222.319 91.1772 222.71 90.3937 223.102C90.0019 223.102 89.6102 223.102 89.2184 223.102C88.4349 223.494 88.0432 223.886 88.0432 224.278C88.0432 224.669 87.6512 225.061 87.6512 225.061C87.6512 225.061 88.4349 224.669 89.2184 224.278C90.002 223.886 90.3938 224.278 90.7856 223.886C91.5691 223.102 91.9607 222.319 91.569 222.319Z" fill="#89C87C"/>
<path d="M95.4849 223.886C95.0931 223.494 93.918 223.494 93.918 223.886C93.918 224.278 93.918 224.278 93.918 224.67C94.3097 225.061 95.0931 225.061 95.4849 224.278C95.4849 224.278 95.4849 224.278 95.4849 223.886Z" fill="#89C87C"/>
<path d="M74.7215 217.226C74.7215 217.618 74.3298 218.009 74.3298 218.401C73.938 218.793 73.1544 218.401 72.7626 218.009C72.3708 217.617 72.7626 216.834 72.7626 214.875C72.7626 213.7 72.7627 212.524 72.3709 212.133C71.9792 211.741 71.1955 212.916 70.8038 212.916C70.412 212.525 72.7628 209.39 73.1545 205.081C73.1545 203.514 73.1543 202.73 73.9379 201.163C74.3296 200.771 74.7216 199.204 76.2886 198.421C76.6804 198.029 78.2474 197.245 79.8144 197.245C81.3815 197.245 81.3817 198.029 82.9488 198.029C84.1241 198.029 84.9076 197.637 85.2993 197.245C86.8664 196.462 87.65 194.895 88.0418 195.287C88.4336 195.287 88.0418 196.07 88.0418 196.462C87.65 197.245 87.2581 197.637 85.691 198.421C84.1239 199.204 83.3404 199.988 82.5569 199.988C81.7733 199.988 80.598 199.988 77.8556 199.596C76.6803 199.596 76.2886 199.204 75.5051 199.596C74.3297 200.38 74.3298 201.947 74.3298 202.338C74.3298 203.514 74.7214 205.081 75.8967 205.473C76.2885 205.473 76.6803 205.081 77.8556 204.689C79.4227 203.906 79.8146 204.297 82.1652 203.514C82.9488 203.122 83.3404 203.122 83.7322 203.122C84.1239 203.514 84.9075 203.905 84.5157 204.297C84.5157 204.689 83.7322 204.297 82.5569 205.081C82.1651 205.473 80.9899 205.864 80.2064 206.648C80.2064 206.648 79.8145 207.04 79.4228 207.04C79.031 207.04 78.6393 206.648 78.2475 207.04C77.8557 207.04 77.8557 207.823 78.2475 208.215C78.6393 208.999 79.0309 208.607 79.8144 209.782C80.2062 210.174 80.598 210.566 80.598 210.957C80.598 211.349 80.5981 211.349 80.2064 211.741C80.2064 212.133 80.2064 212.524 80.2064 212.524C80.5981 213.308 81.3815 212.916 81.7733 213.7V214.092C81.3815 214.875 80.2062 214.483 79.8144 214.875C79.8144 215.267 79.8144 215.659 79.8144 215.659C79.4227 216.05 79.031 216.05 78.6392 216.05C78.2474 215.659 78.2475 214.875 78.2475 214.483C78.2475 213.7 78.6392 213.308 78.6392 212.916C78.2474 212.525 77.464 212.916 77.0722 212.524C76.2887 211.741 77.464 209.782 77.0722 209.39C76.6805 208.999 75.8968 209.782 75.5051 210.174C74.7215 210.957 74.7215 212.524 74.7215 213.308C74.3297 214.875 74.7215 215.659 74.7215 217.226Z" fill="#89C87C"/>
<path d="M81.3814 214.875C80.9896 214.875 80.5979 215.659 80.2062 215.659C80.2062 215.659 79.4226 216.834 80.2062 217.226C80.2062 217.226 80.598 217.618 80.9897 217.618C81.7733 217.618 82.9485 216.051 82.5567 215.267C82.1649 215.267 81.7732 214.875 81.3814 214.875Z" fill="#89C87C"/>
<path d="M91.1761 209.391C90.7843 209.391 90.3925 209.391 90.3925 209.782C90.0007 210.174 90.3925 210.566 90.3925 210.958C90.7843 211.741 91.9596 211.741 92.3514 211.35C93.1349 210.958 93.5267 210.174 93.135 209.391C93.135 208.999 91.5679 209.391 91.1761 209.391Z" fill="#89C87C"/>
<path d="M46.1239 196.854C45.7321 196.854 43.7731 195.679 42.5978 196.462C41.8143 197.246 42.9897 198.421 42.2062 201.163C41.8144 203.514 41.0308 204.298 41.4226 205.081C42.2061 205.865 43.7732 205.473 44.165 206.256C44.5568 207.04 43.7732 207.432 44.165 208.999C44.165 209.782 44.5568 210.566 44.9486 210.958C46.1239 211.741 48.4745 210.174 48.8663 210.958C49.2581 211.35 48.4745 211.741 48.8663 212.133C49.2581 212.917 51.6088 212.525 51.6088 212.525C51.6088 212.525 51.2168 212.525 51.2168 212.133C51.2168 211.741 53.5674 210.958 54.351 211.741C54.7427 212.133 54.3511 212.917 54.7429 213.308C55.1347 213.7 55.5263 212.917 56.3098 213.308C56.7016 213.7 56.7016 214.484 57.0934 214.484C57.4852 214.484 57.8771 213.7 58.6606 213.7C59.0524 213.7 59.0524 214.875 59.4442 215.267C59.836 215.267 60.2276 213.308 61.0111 213.308C61.7947 213.308 61.7946 214.484 62.1864 214.092C62.5782 214.092 62.1864 213.308 62.97 212.525C63.3618 211.741 63.7535 211.741 64.1453 211.35C64.537 210.174 62.9701 209.782 63.3619 208.999C63.3619 208.607 64.1454 208.607 64.5372 207.824C64.9289 207.04 64.5372 206.648 64.5372 205.865C64.9289 205.473 65.3206 205.473 66.1041 205.081C66.4959 205.081 67.2795 204.298 67.6713 203.514C68.0631 202.731 67.6713 202.731 67.6713 201.163C67.6713 199.596 68.063 199.205 68.063 199.205C68.4547 198.813 68.8465 199.205 70.0218 198.813C70.4136 198.813 70.8054 198.421 70.8054 198.029C70.8054 197.638 70.022 197.638 69.2385 196.854C68.8467 196.462 68.063 195.679 68.063 194.895C68.063 194.503 68.4549 194.112 68.4549 193.72C68.0631 193.328 66.8877 193.328 66.8877 192.936C66.8877 192.545 68.4549 192.153 68.4549 191.369C68.4549 190.586 68.063 190.586 68.063 189.802C68.4547 189.41 68.8467 189.41 69.2385 189.019C69.6302 188.627 69.6301 188.235 69.6301 187.843C69.6301 187.06 69.2385 186.668 69.2385 186.276C69.2385 185.884 70.0219 186.276 70.8054 186.276C71.1972 186.276 71.5889 186.276 71.9807 185.884C71.9807 185.493 72.3724 185.101 71.9807 185.101C71.5889 184.317 70.0219 185.101 68.8466 184.317C68.4548 183.926 68.8467 183.926 67.2796 182.358C66.8878 181.967 66.8878 181.575 66.496 181.183C66.1043 180.4 66.4959 180.008 66.1041 180.008C66.1041 180.008 65.7125 180.4 65.3208 180.791C64.929 181.183 64.5372 181.183 64.5372 181.575C64.5372 181.967 64.9288 181.967 64.9288 182.358C64.9288 182.358 64.1453 182.358 63.7536 182.358C63.3618 182.358 63.3618 182.75 62.97 183.926C62.5782 185.101 62.5783 185.101 62.5783 185.493C61.7948 186.276 61.0111 185.884 61.0111 186.276C60.6194 186.668 61.7947 187.451 61.7947 187.843C61.4029 188.235 60.2276 187.451 59.0523 187.843C57.4852 188.235 57.0934 190.194 57.0934 190.194L57.877 189.41C57.877 189.41 57.0936 190.977 55.5265 191.761C54.3512 192.936 53.9593 192.153 52.784 193.328C52.0005 194.112 51.6087 194.503 50.8252 194.503C50.0416 194.503 49.6498 193.72 49.258 194.112C49.258 194.112 48.8663 194.503 48.8663 196.07C48.8663 197.638 49.2581 198.421 48.8663 198.813C47.691 198.029 47.2992 197.246 46.1239 196.854Z" fill="#89C87C"/>
<path d="M85.2999 206.257C84.9081 205.865 85.2998 205.473 85.6915 205.081C86.0833 204.69 86.867 204.69 90.0012 205.473C91.96 205.865 92.3517 206.257 92.3517 206.257C92.3517 206.257 90.3928 205.473 87.6504 205.865C86.0833 206.257 85.2999 206.648 85.2999 206.257Z" fill="#89C87C"/>
<path d="M94.3102 203.514C94.3102 203.514 93.9185 203.906 94.3102 204.298C94.3102 204.689 95.0937 204.689 95.4855 204.689C95.8773 204.689 96.2692 203.906 95.8774 203.906C95.4856 203.122 94.702 203.122 94.3102 203.514Z" fill="#89C87C"/>
<path d="M93.1367 200.771C92.745 200.771 92.3533 201.555 92.7451 201.947C93.1368 202.338 93.5286 202.73 93.9203 202.338C94.3121 202.338 94.312 201.947 94.312 201.555C94.312 201.163 93.9203 200.771 93.1367 200.771Z" fill="#89C87C"/>
<path d="M95.4858 193.328C95.4858 193.328 95.0942 194.112 94.7024 194.895C93.9189 196.071 94.3105 196.07 94.3105 196.462C94.3105 196.462 94.7023 196.462 95.0941 196.462C95.4859 196.462 95.4859 196.071 95.8777 194.895C95.4859 193.72 95.4858 193.328 95.4858 193.328Z" fill="#89C87C"/>
<path d="M96.6604 192.153C96.2687 192.153 95.8768 192.544 95.8768 192.936C95.8768 193.328 96.2687 193.328 96.6604 193.328C96.6604 193.328 97.0522 192.153 96.6604 192.153Z" fill="#89C87C"/>
<path d="M96.6621 194.503C96.2703 194.503 96.662 196.462 95.8785 196.854C95.4867 196.854 95.4867 197.245 94.7032 197.637L94.3113 198.029C93.9195 198.421 93.9195 198.813 94.3113 199.204C94.3113 199.596 94.3114 199.988 94.7032 200.38C95.095 201.163 95.0949 201.163 95.0949 201.555C95.4866 201.947 95.8785 202.338 95.8785 202.338C95.8785 202.338 95.8783 201.555 95.4866 200.38C95.0948 199.204 95.0949 198.421 95.0949 198.029C95.4866 198.029 95.8785 198.813 96.6621 198.813C97.0538 198.813 97.4454 198.029 97.4454 198.029C97.4454 197.637 96.6621 198.029 96.6621 197.637C96.6621 197.245 97.4454 196.854 97.4454 196.07C97.4454 194.895 96.6621 194.503 96.6621 194.503Z" fill="#89C87C"/>
<path d="M100.579 204.297C99.7953 203.906 98.62 205.081 98.62 205.473C98.62 206.256 100.579 206.648 100.971 205.864C101.362 205.473 101.362 205.081 101.362 205.081C100.97 204.689 100.579 204.297 100.579 204.297Z" fill="#89C87C"/>
<path d="M99.4019 207.823C99.0101 207.823 99.0102 208.215 98.2267 208.215C97.8349 208.215 97.8349 208.215 97.0514 208.215C96.2678 208.215 95.8761 208.215 95.8761 208.215C95.4843 208.215 95.4843 208.607 95.0925 208.607C95.0925 208.999 95.0924 208.999 95.4842 209.391C95.876 209.782 96.2678 209.391 97.0514 209.391C97.8349 209.391 97.8349 209.782 98.2267 209.782C99.0102 209.782 99.0103 208.999 99.7938 208.999C100.186 208.999 100.577 209.391 100.577 209.391C100.969 209.782 100.969 209.782 101.753 210.174H102.144C102.144 209.782 101.753 208.999 101.361 208.999C101.361 208.607 100.577 207.823 99.4019 207.823Z" fill="#89C87C"/>
<path d="M106.063 200.38C105.671 200.38 105.671 200.772 104.888 201.163C104.496 201.163 104.496 201.163 104.496 201.555C104.104 201.947 104.496 202.339 104.104 202.731L103.712 203.122C103.321 203.122 103.32 202.339 102.929 201.947C102.537 201.555 101.753 201.555 101.753 201.947C101.753 201.947 101.753 202.339 102.145 202.731C102.929 203.906 102.929 203.514 102.929 203.906C103.712 204.298 104.104 203.906 104.888 204.689C104.888 204.689 105.279 205.081 105.279 205.473C105.671 206.256 105.671 206.648 106.063 206.648C106.455 207.04 107.238 206.256 108.805 205.865C109.197 205.865 109.589 205.865 109.589 205.865C109.981 206.256 109.981 206.648 109.589 206.648C109.197 207.04 108.413 206.256 108.022 206.648C107.63 207.04 107.63 207.04 107.238 207.432C106.846 207.432 106.846 207.432 106.063 207.432C105.279 207.432 104.888 207.432 104.888 207.432C104.888 207.824 105.671 208.607 106.455 208.607C107.238 208.607 107.63 208.607 108.022 208.607C108.022 208.607 108.022 208.999 107.63 209.391C107.238 210.566 106.455 210.958 106.455 210.958C106.455 211.35 107.63 211.35 108.022 210.566C109.197 209.782 109.197 208.215 109.589 208.215C109.981 208.215 109.981 209.391 110.764 209.782C111.156 210.174 111.548 209.782 111.939 209.782C112.723 209.782 113.115 209.782 115.073 210.958C116.641 211.741 117.816 212.525 117.816 212.525C118.208 212.917 119.383 214.092 119.775 215.659C119.775 216.051 120.167 217.226 119.383 217.618C118.991 218.01 118.599 217.618 117.816 218.01C117.424 218.401 117.424 218.793 117.032 219.577C116.249 220.752 115.857 220.752 115.857 221.144C115.857 221.536 118.208 221.927 119.383 220.752C120.167 219.969 120.167 219.185 120.95 219.185C120.95 219.185 121.342 219.185 122.517 220.36C123.693 221.536 124.084 222.319 124.084 222.711C123.693 223.103 122.909 223.103 122.909 223.103C122.909 223.103 125.26 223.494 126.435 221.927C126.827 221.536 126.435 221.536 126.827 221.144C127.61 220.36 128.002 220.752 128.785 219.968C129.177 219.577 128.786 219.577 129.569 218.01C129.961 217.226 130.353 216.834 130.353 216.443C131.136 216.051 132.703 216.443 133.095 217.226C133.487 217.618 133.095 218.01 133.487 219.185C133.879 219.968 134.662 220.752 135.838 221.144C136.229 221.536 136.621 221.144 137.405 221.536C138.188 221.927 138.58 222.319 138.972 222.319C138.972 222.319 138.972 221.536 138.58 221.144C138.188 220.752 137.796 220.752 137.405 220.36C136.621 219.577 137.013 218.793 136.621 216.834C136.229 216.051 136.229 215.267 135.838 215.267C135.054 214.092 134.662 213.7 134.662 212.917C134.662 212.917 134.662 212.525 135.054 212.133C135.446 211.741 135.838 212.133 135.838 211.741C135.838 211.35 135.838 210.958 135.838 210.958C135.838 210.566 135.054 210.566 134.662 210.174C133.879 209.782 132.312 209.391 131.92 208.607C131.528 207.824 131.92 207.432 131.528 206.648C131.136 205.865 130.744 205.865 129.177 205.081C126.827 203.906 127.218 203.514 124.868 202.731C123.692 202.339 122.517 201.947 122.517 201.947C121.342 201.555 120.95 201.555 120.558 201.163C119.383 200.38 118.991 199.988 118.208 199.988C117.424 199.988 117.032 200.772 116.641 201.163C116.249 201.947 116.641 202.339 116.249 202.731C115.857 203.514 114.682 202.731 113.898 203.514C113.506 204.298 113.898 205.081 113.507 206.256C113.115 207.04 112.331 207.432 111.939 207.432C111.548 207.432 111.548 207.04 111.156 206.256C110.372 204.689 109.981 203.906 109.981 203.906C109.589 203.122 109.589 202.339 109.589 200.772C109.589 200.38 109.589 199.596 109.197 199.596C108.805 199.205 108.414 199.596 107.63 199.596C106.846 200.38 106.846 199.988 106.063 200.38Z" fill="#89C87C"/>
<path d="M113.114 199.205C112.722 199.205 112.722 199.596 112.722 199.988C112.722 200.38 113.114 200.38 113.506 200.38C113.898 200.38 114.289 199.988 114.289 199.596C114.289 199.596 113.506 199.205 113.114 199.205Z" fill="#89C87C"/>
<path d="M100.579 198.812C100.579 199.204 100.579 199.596 100.971 199.988C101.362 200.38 101.754 200.38 101.754 200.38C102.146 200.38 102.929 199.988 102.929 199.988C102.929 199.596 101.754 199.204 101.362 199.204C100.97 198.813 100.579 198.812 100.579 198.812Z" fill="#89C87C"/>
<path d="M114.29 202.339C113.898 202.339 113.507 203.122 113.898 203.514C113.898 204.297 115.074 204.297 115.857 203.906C116.249 203.514 116.249 203.122 115.857 203.122C115.857 201.947 115.074 201.947 114.29 202.339Z" fill="#89C87C"/>
<path d="M141.716 205.081C141.324 205.473 141.324 206.256 142.108 206.648C142.499 207.04 142.891 207.04 142.891 207.04C143.283 207.04 142.891 206.256 142.891 205.865C142.499 205.081 142.108 205.081 141.716 205.081Z" fill="#89C87C"/>
<path d="M136.623 210.174C137.014 209.782 137.798 210.566 138.581 210.174C138.973 209.782 139.365 209.391 140.149 208.999C140.54 208.999 140.54 208.999 140.932 208.607C141.324 208.215 141.324 207.432 141.716 207.432L142.107 207.824C142.107 208.215 142.108 208.607 141.716 208.607C141.324 208.999 141.324 208.999 141.324 208.999C140.54 209.782 140.54 210.958 139.757 211.349C139.365 211.741 138.973 211.349 138.581 211.349C137.406 211.741 136.623 210.566 136.623 210.174Z" fill="#89C87C"/>
<path d="M135.056 199.988C134.664 199.988 134.664 200.38 134.664 200.772C134.664 201.163 135.448 201.555 135.839 201.163C136.231 200.772 136.231 200.38 135.839 200.38C135.839 199.596 135.448 199.596 135.056 199.988Z" fill="#89C87C"/>
<path d="M140.146 200.771C140.146 200.771 140.146 201.163 140.538 201.555C140.93 201.947 141.322 201.947 142.105 201.947C142.889 202.339 143.28 203.122 143.28 202.73C143.28 202.73 142.889 201.947 142.497 201.555C141.713 200.771 140.538 200.38 140.146 200.771Z" fill="#89C87C"/>
<path d="M144.065 205.081C144.457 205.864 144.457 205.864 144.457 205.864C144.457 205.864 144.849 205.081 144.457 204.689C144.065 204.297 143.674 204.297 143.674 204.297C143.674 204.297 143.674 204.689 144.065 205.081Z" fill="#89C87C"/>
<path d="M146.026 207.823C145.634 207.823 145.634 208.999 146.026 209.782C146.026 210.174 146.026 210.958 146.418 210.958C146.809 210.958 146.809 210.174 146.809 209.782C146.809 208.607 146.418 207.823 146.026 207.823Z" fill="#89C87C"/>
<path d="M147.983 210.174C147.591 210.174 147.591 210.958 147.591 211.349C147.591 211.741 147.983 212.133 148.375 212.133C148.767 212.133 148.375 211.349 148.375 211.349C148.375 210.958 147.983 210.174 147.983 210.174Z" fill="#89C87C"/>
<path d="M147.985 213.308C147.593 213.308 147.593 214.092 147.985 214.484C147.985 214.875 148.377 215.267 148.768 215.267C148.768 215.267 149.16 214.484 148.768 214.092C148.377 213.7 147.985 213.308 147.985 213.308Z" fill="#89C87C"/>
<path d="M149.942 216.051C149.551 216.051 149.942 216.834 149.942 217.226C150.334 217.618 150.726 217.618 150.726 217.618V216.834C150.334 216.442 149.942 216.051 149.942 216.051Z" fill="#89C87C"/>
<path d="M99.405 231.721C99.0132 231.721 98.6215 232.113 98.2297 232.505C98.2297 232.505 98.2297 232.897 98.2297 233.289C98.6215 234.072 100.58 234.072 101.364 233.289C101.756 232.897 101.756 232.113 101.756 232.113C101.756 232.113 101.364 232.113 100.581 232.505C100.189 232.505 99.7969 232.505 99.7969 232.505C99.4051 232.113 99.7968 231.721 99.405 231.721Z" fill="#89C87C"/>
<path d="M104.103 231.33C103.711 231.33 102.928 231.722 102.928 232.113L103.32 232.505C103.711 232.505 104.103 232.113 104.495 232.505C104.887 232.505 104.887 233.289 104.887 233.68C104.887 233.68 104.887 234.072 104.495 234.464C104.103 234.856 103.32 234.856 102.928 235.247C101.753 235.247 101.361 234.856 100.577 235.247C100.186 235.247 100.185 235.639 99.4019 236.423C99.0101 237.206 98.6184 237.598 98.2266 237.99C97.8349 238.773 98.2267 238.773 97.835 239.557C97.835 239.949 97.4431 240.34 97.0514 240.732C96.6596 241.516 96.2678 241.516 96.2678 241.908C95.876 242.299 95.8761 242.299 95.0925 242.299C94.309 242.691 93.5254 242.691 93.1337 242.691C92.7419 242.691 92.7419 242.299 91.9584 241.908C91.1749 241.516 90.3912 241.516 90.3912 241.124C90.3912 241.124 90.7831 240.732 90.7831 241.124C90.7831 241.124 90.3912 241.908 89.6076 241.908C88.8241 242.299 88.4324 241.908 88.4324 241.908H88.8243L87.6488 243.083L88.0407 242.691C88.0407 242.691 87.2572 243.083 86.8654 243.083C86.4736 243.083 86.4735 243.083 86.4735 243.083C86.0817 243.083 86.0818 243.475 86.0818 243.866C86.0818 244.258 86.0818 244.258 86.0818 244.65C86.0818 245.042 86.0817 245.042 85.6899 245.433L85.2982 245.825C84.9065 245.825 84.9064 245.825 84.5146 245.825V246.217C84.5146 247.001 83.3394 247.784 83.3394 247.784C83.3394 247.784 84.123 247.001 84.123 247.392C84.123 247.392 83.3395 247.784 82.9477 248.568C82.5559 248.959 82.5558 248.959 82.5558 248.959C82.164 248.959 82.5559 248.568 82.1641 248.176H81.7722C81.3804 248.176 81.3805 248.959 81.3805 249.743C81.3805 250.918 81.7723 251.31 81.3805 251.31C80.9888 251.702 80.2051 251.702 79.8133 251.31C79.0298 250.918 79.0299 249.351 79.4217 249.351C79.4217 249.351 79.8133 249.351 79.8133 249.743C79.8133 250.135 79.4217 250.135 78.2464 250.918C77.0711 251.702 77.0711 252.094 77.0711 252.094C77.0711 252.485 77.4628 252.485 77.4628 252.877C77.4628 253.269 77.4629 254.052 77.0711 254.444C76.6794 255.228 75.8958 254.836 75.1123 255.62C74.3287 256.403 74.7205 256.795 74.3287 257.187C73.9369 257.578 73.5452 257.578 73.1534 257.97C72.3699 258.362 72.7616 258.754 72.3698 259.145C71.5863 259.929 70.8028 259.146 69.2357 259.537C68.4522 259.537 68.0603 259.929 67.6685 260.321C66.885 261.104 66.4931 261.104 66.1013 261.496C64.5343 262.671 62.1836 262.28 62.1836 261.888L63.3591 261.496C63.3591 261.496 62.5755 262.28 61.792 262.671C61.0084 263.063 61.0085 263.063 60.6167 263.455C58.6578 264.63 58.6577 265.806 57.0907 265.806C56.6989 265.806 56.3072 265.806 55.9154 266.197C55.5236 266.589 55.5237 267.373 55.5237 267.373C55.5237 267.373 55.9155 266.589 55.5237 265.414C55.5237 265.022 55.1318 265.022 55.1318 265.022C54.74 265.022 57.0907 265.806 56.699 266.197C56.3072 266.981 59.0495 267.764 59.0495 267.764V267.373C59.0495 267.764 56.6988 268.94 56.3071 269.723C56.3071 270.115 54.74 270.899 54.3482 271.29C53.9564 271.682 53.173 271.682 52.7813 271.682C52.3895 272.074 52.7812 273.249 53.1729 273.641C53.9565 274.816 54.3484 274.816 54.7401 275.208C54.7401 275.992 54.7401 276.775 53.9565 276.775C53.5648 276.775 53.173 276.383 52.7813 275.992C52.3895 275.6 52.3894 274.816 52.3894 274.816C52.3894 274.816 51.9977 275.208 51.9977 275.6C51.9977 276.383 53.1729 277.167 53.1729 277.559C53.1729 277.951 52.3895 277.951 51.606 277.559C50.8225 277.167 50.8223 275.6 50.4305 275.6C50.0387 275.6 50.0388 276.383 50.0388 276.775C50.0388 277.167 50.4305 277.559 51.2141 278.342C51.6059 279.126 51.6059 279.126 51.9977 279.518C52.3894 279.909 52.7812 280.301 53.1729 280.693C53.1729 281.085 53.1729 281.085 53.1729 281.085C53.1729 281.476 53.1731 281.868 53.5649 282.26C54.3484 283.435 54.7401 283.435 54.7401 283.827C54.7401 284.219 53.9565 284.219 53.9565 285.002C53.9565 285.394 53.9564 286.178 54.3482 286.569C54.74 286.961 54.7401 286.961 54.7401 287.745C54.7401 287.745 55.1318 288.528 55.1318 288.92C55.1318 289.704 55.1317 290.879 54.3482 291.663C53.9564 292.054 53.5648 292.054 52.7813 292.838C52.3895 293.23 51.9977 293.621 51.9977 293.621C51.9977 294.013 53.1729 293.621 54.3482 294.405C54.74 294.797 54.74 294.797 55.1318 295.188C55.9153 295.58 57.0908 295.188 57.4826 294.797C58.2661 294.405 59.4413 294.013 61.792 293.23C63.359 292.838 64.5343 292.446 66.1013 292.446C67.2767 292.054 68.4521 292.054 69.6274 291.663C70.8027 291.271 71.1945 291.271 71.5862 290.879C72.3698 290.095 72.3698 289.312 73.5451 288.92C74.3286 288.528 74.7205 288.528 76.2875 288.137C79.8135 287.353 79.8135 286.178 82.9477 285.786C83.7312 285.786 84.123 285.786 84.9066 285.394C86.4736 285.002 86.4735 284.219 87.6488 283.827C88.4323 283.435 88.4325 283.827 90.7831 283.827C92.3502 283.827 92.7418 283.827 93.5253 284.219C93.9171 284.611 93.9173 285.002 93.9173 285.394C93.9173 285.394 93.9173 285.786 93.9173 286.569C93.9173 287.353 93.9173 287.353 93.9173 287.745C93.9173 288.137 93.9173 288.137 93.9173 288.92C93.9173 289.312 93.9173 289.312 93.9173 289.704C94.309 290.095 95.0926 289.704 95.8761 289.312C98.6185 287.745 99.4021 285.002 99.7938 285.394C100.186 285.394 99.7937 286.57 99.4019 287.745C98.6184 289.312 96.6596 289.704 97.0514 290.095C97.0514 290.487 97.835 290.487 98.6186 290.095C99.4021 289.704 99.4021 289.312 99.7938 289.312C99.7938 289.312 100.186 290.095 99.7938 290.487C99.7938 290.879 99.402 290.879 99.0102 291.271C98.6185 291.663 98.6186 291.663 98.6186 291.663C98.6186 291.663 99.4021 291.663 99.7938 291.663C100.186 292.054 99.7938 292.446 99.7938 292.446C99.7938 292.838 99.4019 293.23 99.4019 293.621C99.4019 293.621 99.4021 294.013 99.7938 294.405C100.186 294.797 101.361 293.621 102.144 293.621C102.536 294.013 102.536 294.405 102.928 294.797C103.32 294.797 103.711 293.621 104.887 292.838C105.279 292.446 106.062 292.054 106.454 292.054C106.846 292.446 106.062 293.23 106.454 293.23C106.846 293.621 107.629 293.23 108.021 292.446C108.804 292.054 108.804 291.663 109.196 291.271C109.98 290.487 110.763 290.879 111.939 290.487C113.114 290.095 113.506 288.528 113.897 288.137C115.465 284.219 120.949 281.868 126.434 273.641C126.826 273.249 128.393 270.899 129.568 267.373C130.352 265.022 131.136 263.847 131.136 262.671C131.136 261.104 130.744 259.929 131.136 258.362C131.527 257.97 131.919 257.187 131.527 256.795C131.135 256.795 130.744 257.187 130.352 256.795C129.96 256.403 130.744 255.62 130.744 254.444C130.744 254.052 130.352 254.052 130.352 253.661C130.352 252.877 130.744 252.485 130.744 252.094C130.744 251.31 129.568 250.918 129.568 250.527C129.177 250.135 128.785 250.135 128.785 250.135C128.785 249.743 129.177 249.743 129.568 248.959C129.96 248.176 129.177 247.784 129.177 246.609C129.177 245.825 129.568 245.825 129.568 244.65C129.568 243.475 128.785 243.475 128.785 242.691C128.785 241.908 129.568 241.908 129.96 241.124C130.352 240.34 129.96 239.557 129.568 239.165C129.177 238.773 128.785 238.382 128.393 238.382C128.001 238.382 128.001 238.773 128.001 238.773C127.61 238.773 127.218 236.031 128.001 232.897C128.393 231.33 129.177 229.763 128.393 229.371C128.001 229.371 128.001 228.979 127.609 229.371C127.218 229.763 127.218 230.546 126.826 231.33C126.826 232.113 126.434 232.113 125.651 234.464C124.867 236.815 124.475 237.99 124.084 238.773C123.692 241.124 124.084 241.516 123.3 243.083C122.908 243.475 122.516 244.258 121.733 245.433C120.558 247.001 120.949 246.217 119.774 247.784C118.991 248.568 118.991 248.959 118.599 248.959C118.207 248.959 118.207 248.176 117.424 247.392C116.248 246.217 114.289 246.609 114.289 246.609H114.681C114.681 246.217 114.289 245.434 113.114 245.042C111.939 244.65 111.155 245.042 110.763 244.258C110.372 243.866 110.763 243.475 110.763 243.083C110.763 242.299 111.547 241.908 112.331 240.732C112.722 239.949 113.114 239.557 113.114 239.557C113.506 238.773 113.114 238.382 113.114 237.598C113.506 237.206 113.506 237.206 113.897 236.815C114.289 236.423 115.073 235.639 114.681 234.856C114.681 234.464 114.289 234.072 113.897 234.072C113.506 234.072 113.506 235.247 113.114 235.639C112.33 236.423 110.372 235.639 110.372 235.247C110.372 234.856 111.939 234.856 111.939 234.856C111.939 234.856 110.372 236.031 109.588 235.639C109.196 235.639 108.805 234.856 108.805 234.856C108.413 234.464 108.413 234.464 108.021 234.464C107.629 234.464 108.021 234.856 107.629 234.856C107.237 234.856 106.846 233.68 105.67 233.289C104.495 231.33 104.103 231.33 104.103 231.33Z" fill="#89C87C"/>
<path d="M116.643 242.691C116.251 242.691 115.859 243.083 115.859 243.866C115.859 244.258 116.643 244.65 117.035 244.65C117.427 244.65 117.427 243.866 117.427 243.475C117.035 243.083 116.643 242.691 116.643 242.691Z" fill="#89C87C"/>
<path d="M112.725 236.815C112.334 236.815 112.334 237.206 111.942 237.598C111.942 237.99 111.942 238.382 111.942 238.382C112.334 238.382 112.725 237.99 112.725 237.598C113.117 237.598 113.117 237.206 112.725 236.815Z" fill="#89C87C"/>
<path d="M103.713 294.013C103.713 294.013 103.321 294.405 102.146 294.797C101.754 295.189 101.362 295.189 100.97 295.189C100.579 295.189 100.579 294.797 100.187 294.797C99.7951 294.797 99.7952 294.797 98.6199 295.972C97.8364 297.147 97.4445 297.539 97.8363 297.539L98.228 297.931C99.0115 297.931 99.4033 297.147 100.187 296.364C100.97 295.58 101.362 295.972 102.146 295.58C103.321 295.189 103.713 294.405 103.713 294.013Z" fill="#89C87C"/>
<path d="M95.8768 288.528C95.8768 288.528 95.485 288.528 95.0932 288.528C94.3097 288.528 94.3097 288.528 93.918 288.92C93.918 289.312 93.918 289.312 93.918 289.704C94.3097 290.095 95.0932 289.704 95.0932 289.704C95.8768 289.704 96.2686 288.92 95.8768 288.528Z" fill="#89C87C"/>
<path d="M64.5352 176.482C64.5352 176.873 64.9268 175.698 66.1021 174.131C66.8856 173.347 66.8857 173.347 67.6693 172.564C68.8446 170.997 68.8445 170.213 70.0198 169.822C70.8034 169.43 71.1952 169.822 71.587 169.43C71.9788 169.038 71.9788 168.646 71.587 168.254C71.587 167.863 71.1953 167.863 71.1953 167.863C70.8035 167.471 70.8035 166.687 71.1953 165.904C71.5871 165.512 71.9788 165.512 72.3706 165.904C73.1541 166.296 73.1541 168.254 72.3706 169.43C71.587 170.213 70.8034 169.821 70.0198 170.997C70.0198 171.389 69.6282 171.78 69.2365 172.172C68.8447 172.564 68.8445 172.956 68.8445 173.347C68.4528 173.739 68.061 174.131 68.061 174.523C67.6692 174.915 67.2775 175.306 66.8857 175.698C65.7104 177.265 65.7105 179.224 65.3187 179.224C64.927 178.44 64.5352 176.482 64.5352 176.482Z" fill="#89C87C"/>
<path d="M78.6389 179.616C78.2471 179.616 78.2472 178.832 78.2472 178.832C78.2472 178.832 78.2471 176.873 79.4225 176.482C79.8142 176.482 80.206 176.482 80.5977 176.09C80.5977 176.09 80.9896 176.09 80.9896 175.306C81.7732 174.523 81.3812 174.131 81.773 173.739C82.1648 173.348 82.9485 173.739 82.9485 174.131C83.3403 174.523 82.9484 175.306 83.3402 175.306C83.7319 175.306 84.1238 175.306 84.1238 174.915C84.5155 174.523 84.1238 174.131 84.1238 173.739C84.1238 173.739 84.5156 174.131 84.9074 174.131C85.2991 174.131 84.9073 172.956 85.299 172.564C85.6908 172.564 85.6908 172.956 86.4743 172.956C86.8661 172.956 87.6496 172.956 87.6496 172.564C87.6496 172.172 86.8661 171.389 87.2579 171.389C87.2579 170.997 88.4332 171.389 89.2167 172.172C89.6085 172.564 89.6084 172.956 89.6084 173.348C89.6084 173.739 89.6084 173.739 89.6084 174.131C89.6084 174.915 90.392 174.915 90.392 175.306C90.392 175.698 90.0003 176.09 90.0003 176.482C90.0003 176.873 90.392 176.874 90.392 177.657C90.392 177.657 90.3921 178.049 90.0003 178.441C89.6086 179.224 89.2167 179.616 89.2167 179.616C88.825 179.616 88.8249 178.441 88.4331 178.441C88.0414 178.441 88.0413 178.832 87.6496 179.224C87.6496 179.224 87.6496 179.616 87.6496 180.008C87.6496 180.399 88.4331 180.399 88.4331 180.791C88.4331 181.183 88.4332 181.183 88.0415 181.575C87.6497 181.967 87.6497 182.358 87.2579 182.358C86.8661 182.358 87.258 181.575 86.8662 181.575C86.4744 181.575 86.4742 181.966 85.6907 181.966C84.9072 181.966 84.1238 181.575 84.1238 180.791C84.1238 180.399 84.1238 180.008 84.1238 179.224C84.1238 178.441 84.5154 178.049 84.5154 177.657C84.5154 176.874 83.3403 176.09 82.9485 176.482C82.9485 176.482 82.9484 176.874 82.1649 177.657C81.7731 178.049 81.773 178.049 81.773 178.049C81.3812 178.049 81.3814 177.265 80.9896 177.265C80.5979 177.265 80.5977 178.049 80.5977 178.049C80.5977 178.049 80.5978 177.265 80.206 177.265C79.8143 177.265 79.8142 177.265 79.4225 177.265C79.0307 177.657 79.0306 178.049 78.6389 178.441C79.4224 179.224 79.4224 179.224 78.6389 179.616C79.0306 179.616 79.0306 179.616 78.6389 179.616Z" fill="#89C87C"/>
<path d="M78.6389 180.791C78.2472 181.183 78.6391 181.575 79.0308 181.966C79.4226 181.966 79.8142 181.967 79.8142 181.575V181.183C79.4224 180.399 78.6389 180.399 78.6389 180.791Z" fill="#89C87C"/>
<path d="M81.3806 167.079C81.3806 167.079 81.3807 167.863 80.9889 168.254C80.5972 168.254 80.2053 168.254 80.2053 168.254C80.2053 167.863 80.2052 167.471 80.597 167.079C80.9888 166.296 80.9889 166.296 80.9889 165.904C80.9889 165.12 80.2053 164.337 79.4217 164.728C79.03 164.728 79.0299 165.512 78.6382 165.512C78.2464 165.512 78.2463 164.728 77.8546 164.728C77.4628 164.728 77.4629 165.12 77.4629 165.904C77.4629 167.079 78.6382 167.079 78.6382 168.254C78.6382 169.038 78.2465 169.43 78.2465 169.43C78.2465 169.43 79.03 169.038 79.4217 169.038C79.8135 169.038 80.2053 169.43 80.2053 169.822C80.2053 169.822 80.2053 170.213 80.2053 170.605C80.2053 170.997 79.8135 170.605 79.4217 170.997C79.03 171.389 79.03 171.78 79.4217 172.564C79.8135 172.956 80.2052 172.956 80.597 173.347C80.9888 173.739 80.5972 173.739 80.9889 174.131C81.3807 174.131 81.7724 173.739 82.1642 173.739C82.9477 172.956 82.9477 172.564 83.3395 171.389C83.7312 170.997 83.7311 170.997 83.7311 170.605C84.5147 169.038 83.7311 167.079 83.7311 167.079C83.7311 167.079 83.7311 167.079 83.7311 167.471C83.7311 168.646 82.5558 169.038 81.7723 170.213C81.3805 170.997 81.3806 172.172 81.3806 172.172C81.3806 172.172 80.9889 170.997 80.9889 170.213C80.9889 168.254 81.3806 167.079 81.3806 167.079Z" fill="#89C87C"/>
<path d="M85.299 169.43C84.9073 169.43 84.5156 169.821 84.1238 170.213C84.1238 170.605 84.1237 170.997 84.5155 170.997C84.9072 171.389 85.6907 170.997 85.6907 170.605C86.0825 170.605 85.6908 169.43 85.299 169.43Z" fill="#89C87C"/>
<path d="M84.5146 164.728C84.1229 164.728 84.1229 165.904 84.5146 166.687C84.5146 167.079 84.9065 166.687 84.9065 167.079C85.2983 167.471 84.9064 168.646 85.2982 169.038C85.69 169.43 86.4735 169.43 86.4735 169.43C86.4735 169.43 86.4736 169.038 86.0818 168.254C85.69 167.079 85.6899 166.296 85.6899 166.296C85.6899 166.296 85.69 165.904 86.0818 165.904C86.4736 165.904 87.2572 166.687 86.8654 167.079H86.4735C86.4735 167.079 87.2571 166.687 87.2571 166.296C87.2571 165.904 86.4735 165.904 86.4735 164.728C86.0817 163.945 86.4736 163.553 86.0818 163.161C85.69 162.77 85.69 162.77 85.2982 162.378C84.5147 161.986 83.7311 161.986 83.3394 162.378C83.3394 162.77 83.3393 163.161 83.731 163.553C84.5146 164.337 85.2982 164.337 85.2982 164.728C85.2982 165.12 85.2983 165.512 84.9065 165.512C85.2983 165.12 84.9064 164.728 84.5146 164.728Z" fill="#89C87C"/>
<path d="M80.6001 161.986C80.6001 162.378 80.6002 162.77 80.992 163.553C80.992 163.945 80.9919 163.945 81.3837 163.945C81.3837 163.945 81.3836 163.161 81.7754 163.161C81.7754 163.161 82.1672 163.553 82.559 163.945C82.9507 163.945 82.9508 164.337 83.3425 164.337C83.3425 164.337 83.3426 163.553 82.9509 163.161C82.5591 162.378 82.1671 161.986 81.7754 161.594C81.3836 161.986 80.9919 161.986 80.6001 161.986Z" fill="#89C87C"/>
<path d="M77.4659 161.986C77.0742 161.986 77.0742 163.553 77.4659 163.945C77.8577 163.945 77.8576 163.945 77.8576 163.553C78.2494 163.161 78.2494 162.77 77.8576 162.378C77.8576 161.986 77.4659 161.594 77.4659 161.986Z" fill="#89C87C"/>
<path d="M72.3723 163.162C71.9805 163.162 71.9803 163.553 71.9803 163.945C71.9803 164.337 72.3722 164.337 72.7639 164.337C73.1557 164.337 73.1559 163.945 73.1559 163.553C73.1559 163.162 72.764 162.77 72.3723 163.162Z" fill="#89C87C"/>
<path d="M73.1549 160.028C73.1549 160.419 73.5465 160.419 73.9383 161.203C74.33 161.986 74.3301 162.77 74.7218 163.162C74.7218 163.162 75.1138 163.554 75.1138 163.162C75.5055 163.162 75.8972 161.986 75.5054 161.203C75.5054 160.811 75.5055 160.811 75.1138 160.419C74.722 159.636 73.1549 159.636 73.1549 160.028Z" fill="#89C87C"/>
<path d="M79.4232 162.378C79.0314 162.378 79.0315 162.77 79.0315 163.162L79.4232 163.553C79.8149 163.162 79.8149 162.77 79.4232 162.378Z" fill="#89C87C"/>
<path d="M77.4643 159.244L77.0726 159.635C77.0726 160.027 77.4642 160.027 77.856 160.027C78.2478 160.027 78.2479 159.635 78.2479 159.244C77.8561 159.244 77.4643 159.244 77.4643 159.244Z" fill="#89C87C"/>
<path d="M77.8561 157.677C78.2479 157.285 78.2479 157.285 78.6397 156.893C79.0314 156.893 79.8149 156.893 79.8149 157.285C80.2067 157.677 79.4232 158.46 79.8149 158.46C79.8149 158.46 80.2068 158.46 80.5985 158.46C80.9903 158.068 80.9904 157.677 81.3821 157.285C81.7739 157.285 82.1657 157.285 82.1657 157.677C82.1657 158.068 81.7738 158.069 81.7738 158.852C81.7738 159.244 82.1658 159.636 82.9493 160.027C83.3411 160.419 83.341 160.419 83.341 160.811V161.203C82.9492 161.203 82.5573 160.811 81.7738 160.419C81.382 160.027 81.3822 159.636 80.9904 159.244C80.5987 159.244 80.5985 159.244 79.8149 159.244C79.8149 159.244 79.4234 159.244 79.0316 158.852C78.6398 158.46 78.6397 158.069 78.6397 158.069C78.6397 158.069 79.0316 158.852 79.0316 159.636V160.027C79.0316 160.027 78.6398 159.244 78.248 158.46C77.8562 158.068 77.8561 158.069 77.8561 158.069C77.4643 158.069 77.4643 158.068 77.8561 157.677Z" fill="#89C87C"/>
<path d="M82.9509 157.677C82.5591 157.677 82.559 158.068 82.559 158.46C82.559 158.852 83.3425 159.244 83.7342 159.244C84.126 159.244 84.126 158.852 83.7342 158.46C83.7342 157.677 83.3426 157.285 82.9509 157.677Z" fill="#89C87C"/>
<path d="M76.6824 157.285C75.8988 156.11 75.5071 155.326 75.5071 154.934C75.5071 154.543 75.5071 154.151 75.5071 153.759C75.5071 152.975 75.5071 152.975 75.5071 152.584C75.5071 151.8 75.1154 151.8 75.1154 151.408C75.1154 151.017 75.5071 151.017 76.2907 150.625C76.6825 150.233 77.4659 149.841 77.4659 149.058C77.4659 148.274 77.0743 147.882 77.0743 147.491C76.6825 147.099 76.6825 147.099 76.2907 146.707C75.8989 145.924 76.2907 145.924 76.2907 144.748C76.2907 143.965 75.8989 143.573 75.5071 143.573C75.5071 143.573 75.5072 144.356 75.1154 144.356C74.7236 144.356 74.7236 144.356 74.3318 143.965C73.5483 143.573 72.3728 143.573 71.9811 143.965C71.5893 144.356 71.9811 144.356 71.9811 145.14C71.9811 146.707 72.373 146.707 72.373 147.491C72.373 148.274 71.9811 148.274 71.9811 148.666C71.9811 149.449 72.7647 149.841 72.373 150.233C72.373 150.233 72.3728 150.625 71.9811 150.625C71.5893 150.625 71.5895 149.841 71.1977 149.841C70.8059 149.841 70.8058 150.233 70.8058 150.233C70.8058 150.625 71.1977 151.017 71.1977 151.8C71.5895 152.975 71.1975 153.759 71.9811 154.542C71.9811 154.542 71.9812 154.934 72.373 154.934C72.7647 154.934 73.1565 154.934 73.5482 154.542C73.94 154.151 73.9399 153.759 73.9399 153.759C74.3317 153.759 74.3318 154.151 74.3318 154.542C74.3318 154.934 73.94 154.934 73.5482 155.326C73.5482 155.718 73.5482 156.11 73.5482 156.501C73.94 157.285 75.507 157.677 75.8988 157.285C75.8988 156.893 75.507 156.501 75.8988 156.501C76.2905 156.11 76.6824 156.501 76.6824 156.501C77.0741 157.677 76.6824 157.677 76.6824 157.285Z" fill="#89C87C"/>
<path d="M70.4127 124.768C69.2374 125.16 68.8456 126.727 68.4538 127.51C68.0621 128.294 67.6703 129.469 68.4538 131.036C68.8456 132.211 70.0209 133.779 70.4127 133.387C70.8045 133.387 70.4126 132.603 70.8044 130.644C70.8044 129.861 71.1962 128.294 71.588 126.727C71.9797 125.551 72.3716 124.768 72.3716 124.768C71.9798 124.376 71.1962 124.376 70.4127 124.768Z" fill="#89C87C"/>
<path d="M40.6386 140.439C42.2057 140.047 43.7729 141.222 44.1646 141.222C44.1646 141.222 44.1647 140.83 43.7729 140.83C43.3812 140.83 43.7728 142.397 43.381 144.356C42.9893 145.14 42.9892 145.532 42.5974 145.923C42.2057 146.315 41.814 145.923 40.2469 146.315C39.0716 146.315 39.0715 146.315 38.6797 146.315C37.8962 145.923 38.2881 144.356 38.2881 143.965C38.2881 143.181 39.0715 142.397 39.4633 142.006C39.8551 141.222 40.2468 140.83 40.6386 140.439Z" fill="#89C87C"/>
<path d="M77.4642 102.437C77.0724 102.045 76.2889 102.045 76.2889 102.437C75.8972 102.829 76.289 104.004 77.0725 104.396C77.4643 104.396 78.2478 104.004 78.2478 103.612C77.856 102.829 77.4642 102.437 77.4642 102.437Z" fill="#89C87C"/>
<path d="M86.0826 102.045C85.2991 102.045 84.1238 102.437 84.1238 102.829C84.1238 103.22 84.9072 103.612 85.6907 104.788C86.0825 105.179 86.0825 105.179 86.4743 106.746C86.8661 107.922 87.2578 108.705 87.6496 108.705C88.0413 108.705 88.4333 107.138 88.8251 106.355C88.8251 105.571 89.2168 104.004 88.0415 103.22C87.2579 102.045 86.0826 102.045 86.0826 102.045Z" fill="#89C87C"/>
<path d="M88.0432 97.7358C87.6514 97.7358 87.2596 98.1276 86.0843 99.3029C85.6925 99.6947 85.6924 100.086 85.6924 100.086C85.6924 100.478 86.8678 101.262 88.0432 100.87C88.8267 100.478 88.4348 100.086 89.6101 99.6947C90.3936 99.3029 90.3936 99.6947 91.569 99.3029C92.3525 98.9111 92.3527 98.9111 92.7445 98.9111C93.1362 98.9111 93.5278 99.3029 93.5278 99.6947C93.9196 100.086 93.5278 100.478 93.5278 100.87C93.5278 101.262 94.3115 101.654 94.7033 101.654C95.4869 101.654 96.2703 100.478 96.2703 99.6947C96.2703 98.5193 95.095 98.1276 95.095 97.7358C95.095 97.7358 95.8785 97.7358 96.2703 97.7358C97.0538 98.1276 97.0539 99.3029 97.8374 99.3029C98.2292 99.3029 98.2293 98.9111 98.621 98.1276C99.0128 97.3441 99.0126 96.9523 99.4044 96.9523C99.7961 96.9523 99.7962 98.9111 100.188 98.9111C100.188 98.9111 100.58 98.1276 100.58 97.3441C100.58 96.9523 100.58 96.5605 100.58 96.5605L100.972 96.9523C101.363 96.9523 101.363 95.777 100.972 95.3852C100.58 94.9934 100.58 94.9934 100.188 94.6016C99.7962 93.8181 100.188 93.4263 100.188 92.6428C100.188 91.8592 99.4045 91.8592 99.0127 90.6839C98.2292 89.1168 99.0127 88.7251 98.2291 87.5498C98.2291 87.5498 97.4456 86.7662 96.2703 85.5909C95.0949 84.4156 94.7033 84.0238 94.7033 84.0238C94.3115 84.0238 94.7033 85.1992 94.7033 85.5909C94.7033 86.3745 95.095 87.158 95.8786 88.725C96.6621 89.9004 97.0538 90.2921 97.0538 90.6839C97.0538 90.6839 97.0539 90.6839 95.8786 91.8592C95.4868 92.6428 95.4868 92.6428 95.095 92.6428C94.7032 93.0345 94.3115 93.0346 93.9197 93.4263C93.528 93.8181 93.1361 93.8181 93.1361 93.8181C93.1361 94.2099 93.1361 94.2099 93.1361 94.9934C93.1361 95.777 93.1361 95.777 93.1361 96.1687C92.7444 96.5605 92.3526 96.1687 91.9609 96.1687C91.1773 96.1687 91.1774 95.7769 90.7856 95.7769C90.3938 95.7769 90.3938 95.777 90.002 96.1687C89.6102 96.5605 89.2184 96.1687 88.4348 96.5605C88.4348 97.7358 88.4349 97.7358 88.0432 97.7358Z" fill="#89C87C"/>
<path d="M89.9992 101.653C89.6075 102.045 89.2157 102.045 89.2157 102.437C88.8239 102.829 89.6075 103.612 89.9992 104.004C90.391 104.396 90.7828 104.787 90.7828 104.787C91.1746 104.787 90.7827 102.829 91.1745 102.437C91.5663 102.437 91.958 102.829 92.3498 102.829C92.7416 102.829 92.7417 102.045 92.7417 101.653C92.7417 100.87 92.3499 100.478 91.9581 100.478C91.1746 100.086 91.1746 101.261 89.9992 101.653Z" fill="#89C87C"/>
<path d="M92.3501 84.0239C91.9583 83.6321 91.9583 83.2404 91.5665 82.4568C91.1747 81.6733 90.7831 81.2815 91.1748 81.2815C91.5666 80.8897 93.1337 81.2815 93.1337 80.8897C93.1337 80.4979 92.7419 79.7144 91.1748 77.7556C90.3913 76.5803 89.9995 76.5802 90.3912 76.1885C90.3912 75.7967 92.35 76.5803 93.5254 77.7556C94.7007 78.9309 95.0925 79.7144 96.2678 79.7144C97.0513 79.7144 97.0513 79.3227 97.4431 79.7144C97.8348 80.1062 98.2268 81.2815 97.835 81.6733C97.4432 82.0651 97.0514 81.6733 97.0514 81.6733C96.6596 82.0651 97.4432 83.2404 97.0514 83.6321C96.6596 83.6321 96.2678 83.6321 96.2678 83.6321C95.4843 83.2404 95.4844 82.8486 94.7009 82.4568C93.9173 82.065 93.1338 82.4568 92.742 82.8486C92.742 83.2403 92.7419 83.6321 93.1337 83.6321C93.5255 84.0239 93.9173 84.0239 93.9173 84.4157C93.9173 84.0239 93.1336 84.4157 92.3501 84.0239Z" fill="#89C87C"/>
<path d="M81.3821 99.6947C80.9904 100.086 81.382 100.87 81.7738 100.87C82.1656 100.87 82.5574 100.478 82.5574 100.086C82.5574 99.6947 81.3821 99.6947 81.3821 99.6947Z" fill="#89C87C"/>
<path d="M81.7738 104.004C81.382 104.004 80.9904 104.396 81.3821 104.788C81.7739 105.179 82.1656 105.179 82.5574 104.788C82.9492 104.788 82.1656 104.004 81.7738 104.004Z" fill="#89C87C"/>
<path d="M88.0422 54.2491C88.4339 54.2491 88.8257 54.2491 89.2174 54.2491C80.9902 49.9396 72.763 46.0219 63.7523 43.2795H63.3606C62.9688 43.2795 62.1853 43.6712 61.4018 43.6712C59.0511 43.6712 58.2675 41.7124 55.9169 41.7124C54.7415 41.7124 54.7417 42.1042 53.5663 42.1042C51.9993 42.1042 51.2157 41.3207 49.6486 40.5371C48.4733 40.1453 48.4732 40.5371 46.1226 39.7535C44.1637 39.3618 42.9885 38.97 39.8543 38.1865C38.2873 37.7947 37.8955 37.7947 37.8955 37.7947C37.8955 38.1864 39.4624 38.97 41.4213 39.7535C42.9884 40.1453 43.772 40.1453 43.772 40.5371C43.772 40.9289 42.2048 40.9289 41.4213 40.9289C40.6377 40.9289 39.8543 40.9289 39.0708 40.9289C37.5037 40.5371 37.5036 40.1453 35.5447 39.3618C34.7612 38.97 33.586 38.5783 32.0189 38.5783C31.6271 38.5783 31.627 38.5783 30.4517 38.5783C28.8846 38.5783 28.4928 38.5783 27.7093 38.5783C26.534 38.5783 25.7504 38.5782 24.9668 38.1865C24.5751 38.1865 24.1833 37.7947 23.7916 37.7947C23.7916 37.7947 23.0081 37.4029 22.6163 37.4029C19.0904 36.6194 14.7809 37.0111 14.7809 37.0111C11.6467 37.4029 11.6468 37.7947 7.72905 38.1865C6.55374 38.1865 5.37833 38.5783 4.20302 38.5783C2.24416 38.5783 1.06885 38.5782 0.285294 39.3618C-0.106476 39.7536 -0.106522 40.5371 -0.498291 40.9289C-0.89006 40.9289 -0.890015 40.9289 -1.67355 40.5371C-2.45711 40.1453 -2.84873 40.1453 -3.2405 40.1453C-3.63227 40.1453 -4.80773 40.1453 -5.59127 40.5371C-5.98304 40.9289 -5.98309 40.9289 -6.37486 40.9289C-6.76663 40.9289 -7.15836 40.1453 -7.55013 40.1453V40.5371C-7.55013 40.9289 -8.33353 40.5371 -9.11707 40.5371C-9.50884 40.5371 -10.6842 40.9288 -12.6431 41.7124C-13.0349 41.7124 -13.4266 42.1042 -13.8184 42.1042C-14.2101 42.4959 -14.6019 42.8877 -14.9936 42.8877C-15.3854 42.8877 -16.5608 42.8877 -17.7361 42.496C-18.5196 42.496 -18.9114 42.1042 -18.9114 42.1042C-18.9114 41.7124 -16.5609 40.9289 -16.1691 40.9289C-12.6432 40.1453 -11.8596 40.5371 -9.50898 39.7535C-8.33367 39.3618 -8.33372 39.3618 -6.37486 38.5783C-4.80778 37.7947 -3.63242 37.7947 -3.63242 37.7947C-3.63242 37.7947 -6.37467 38.1865 -7.15821 38.1865C-8.33353 38.1865 -9.9008 38.5782 -12.2514 38.97C-14.6021 39.3618 -15.7773 39.7535 -16.5608 39.7535C-19.3032 40.5371 -18.9115 40.9289 -21.2621 41.3206C-21.6539 41.3206 -22.4374 41.7124 -22.4374 41.7124C-22.4374 42.1042 -20.0869 42.1042 -20.0869 42.496C-20.0869 42.8877 -20.8703 42.8877 -21.6538 43.2795C-24.0044 43.6713 -24.7879 43.2795 -26.7468 43.2795C-27.9221 43.2795 -28.7058 43.6713 -29.8811 44.063C-32.6235 45.2383 -33.4071 46.4136 -35.7577 46.8054C-35.7577 46.8054 -37.7166 47.1972 -37.7166 46.8054C-37.7166 46.4136 -33.4069 44.4548 -31.4481 43.2795C-34.1905 44.063 -36.9329 45.2384 -39.2835 46.4137C-39.2835 46.4137 -39.2835 46.4136 -39.2835 46.8054C-39.2835 46.8054 -39.2835 47.1972 -39.2835 47.589C-39.6753 48.7643 -43.5931 49.5478 -43.5931 49.5478C-43.9849 49.5478 -44.3766 49.5478 -44.7684 49.5478L-45.1601 49.1561C-64.7486 58.5586 -81.5948 71.8788 -95.3067 88.3332C-94.915 88.3332 -94.5234 88.3332 -94.5234 88.3332C-93.3481 87.9414 -92.9563 86.7661 -92.5645 85.5908C-92.1728 84.8073 -90.9975 83.6319 -88.6468 81.2813C-86.2962 78.9307 -83.1619 76.5801 -83.1619 76.5801C-83.1619 76.9718 -85.9044 80.106 -85.9044 80.106C-85.9044 80.106 -83.9455 78.5389 -81.9867 76.9718C-81.2031 76.1883 -80.4196 75.4048 -80.0278 75.7965C-79.636 75.7965 -79.6359 76.1883 -79.6359 76.5801C-79.6359 77.3636 -81.5949 77.3636 -82.7703 78.5389C-83.162 78.9307 -83.5538 79.7142 -83.9455 81.2813C-84.7291 83.2402 -84.3372 83.6319 -85.1208 84.4155C-85.5126 85.199 -86.296 86.3743 -87.4713 86.3743C-88.2549 86.3743 -88.6466 86.3743 -89.4302 86.7661C-89.8219 86.7661 -89.822 87.1579 -90.2138 87.1579C-90.6055 87.1579 -89.822 85.5908 -90.2138 85.199C-90.6055 84.8072 -92.5645 85.9826 -92.5645 86.3743C-93.7399 87.1579 -94.1314 87.9414 -95.3067 88.7249C-96.4821 89.9002 -96.4821 89.9003 -98.0492 91.0756C-98.441 91.4674 -100.008 93.0344 -101.575 95.7768C-101.575 95.7768 -102.359 97.3439 -101.967 97.3439C-101.967 97.3439 -100.792 96.1686 -100.4 96.5604V97.3439C-100.4 97.3439 -99.6163 96.5604 -98.8328 95.7768C-98.8328 95.7768 -97.6574 94.6015 -97.2656 94.9933C-96.8738 95.3851 -98.0492 96.5604 -100.008 98.911C-102.75 102.829 -104.318 104.788 -104.709 105.571C-105.101 106.746 -105.885 108.314 -107.06 108.705C-107.06 108.705 -107.844 108.705 -108.235 108.705C-108.235 108.314 -107.844 107.922 -108.235 107.922C-108.235 107.922 -109.411 109.489 -109.802 109.097C-109.802 109.097 -109.802 108.705 -109.802 107.53C-109.411 105.963 -109.019 105.179 -109.019 104.788C-122.731 127.119 -130.566 153.367 -130.566 181.967C-130.566 210.566 -122.339 236.814 -108.627 259.537C-109.019 257.97 -109.411 256.795 -109.802 255.62C-109.802 255.62 -110.978 243.866 -113.72 243.475C-114.112 243.475 -114.504 243.475 -115.287 243.475C-116.071 242.691 -116.462 241.124 -116.462 240.34C-116.462 239.949 -116.463 239.165 -116.071 238.382C-115.679 237.598 -115.287 237.206 -115.287 237.206C-114.504 236.031 -115.287 234.072 -116.462 231.33C-117.246 229.371 -117.638 227.412 -119.205 223.494C-119.205 223.103 -119.597 221.927 -119.989 220.752C-121.556 214.875 -122.731 211.741 -122.731 208.999C-122.731 205.081 -121.556 203.906 -122.339 200.772C-122.339 200.38 -122.731 199.204 -122.339 197.637C-122.339 197.246 -121.947 196.854 -121.164 194.503C-120.38 192.544 -119.988 191.761 -119.597 191.369C-118.813 189.802 -118.421 189.41 -117.638 187.843C-117.246 187.06 -116.854 186.276 -116.854 185.884C-116.071 183.142 -114.895 181.575 -112.545 177.265C-110.978 174.131 -109.802 172.172 -109.411 170.997C-109.019 169.822 -108.627 167.863 -108.235 163.553C-108.235 163.553 -108.235 161.986 -108.627 161.986C-109.019 161.986 -109.019 162.77 -109.802 162.77C-110.586 162.77 -111.369 162.378 -111.761 162.378C-112.153 162.77 -112.153 163.553 -112.545 163.553C-112.937 163.553 -113.328 162.77 -114.112 163.161C-114.504 163.161 -114.504 163.945 -115.287 163.945C-115.679 163.945 -116.071 163.553 -116.462 163.945C-117.246 163.945 -117.246 164.729 -117.638 164.729C-117.638 164.729 -118.03 164.337 -118.03 163.553C-118.421 161.986 -118.421 161.594 -118.421 161.594C-118.421 161.203 -118.421 160.811 -118.421 160.419C-118.421 160.419 -118.03 160.027 -117.638 159.244C-116.854 158.46 -116.462 158.46 -116.462 158.068C-116.462 157.677 -116.854 157.285 -117.246 156.893C-118.03 156.11 -118.813 154.543 -118.813 153.759C-119.205 152.584 -118.421 152.192 -118.813 150.625C-118.813 149.449 -119.205 149.449 -119.205 148.666C-119.205 147.491 -119.205 146.707 -118.813 145.14C-118.421 143.965 -118.421 143.573 -118.421 143.181C-118.421 142.398 -118.813 141.614 -118.813 141.222C-119.205 140.047 -119.205 138.48 -116.854 131.82C-116.071 128.686 -116.071 129.077 -115.679 128.294C-114.895 125.16 -114.896 123.984 -114.112 121.634C-113.328 118.891 -112.153 116.541 -111.761 116.541C-111.761 116.541 -112.153 118.5 -112.936 122.025C-113.72 124.768 -114.112 125.943 -114.112 127.902C-114.112 129.469 -114.112 129.469 -114.112 130.253C-114.504 132.995 -116.462 133.387 -116.462 135.346C-116.462 136.129 -116.071 136.129 -116.071 137.305C-116.071 138.48 -116.071 139.263 -116.071 140.439C-116.463 143.181 -116.462 143.573 -116.854 145.532C-116.854 147.099 -116.854 147.099 -116.854 148.666C-116.854 152.192 -117.638 152.584 -117.246 153.759C-116.854 154.934 -115.287 156.11 -114.112 156.11C-113.328 156.11 -113.328 155.718 -112.153 154.934C-110.978 154.151 -110.978 154.151 -107.843 152.975C-106.276 152.192 -105.493 151.8 -105.101 151.408C-104.317 150.233 -104.709 149.058 -103.926 147.882C-103.534 147.491 -102.751 147.099 -101.575 147.099C-100.792 147.099 -100.4 147.491 -100.008 147.099C-99.6163 146.707 -99.6162 145.924 -99.2245 145.532C-98.8327 145.14 -98.8327 145.532 -98.0492 145.14C-97.6574 144.748 -97.2657 144.748 -96.8739 144.748C-96.0904 143.965 -96.4821 143.181 -96.0903 142.789C-95.6986 142.398 -95.3069 142.789 -94.5234 142.398C-94.1316 142.006 -94.1315 142.006 -94.1315 141.614C-93.7397 140.439 -94.1316 140.047 -93.7398 139.263C-93.348 138.872 -92.9563 138.088 -92.5645 138.48C-92.1728 138.48 -92.1727 139.263 -91.7809 139.263C-91.3892 139.263 -91.389 138.48 -91.389 137.696C-90.9973 136.521 -90.6055 135.737 -90.2138 135.737C-89.4302 134.562 -88.6468 134.562 -87.8632 133.779C-87.4715 133.387 -87.4713 132.995 -87.4713 132.603C-87.4713 132.212 -87.8632 132.603 -87.8632 132.212C-88.255 131.82 -88.2549 131.428 -88.2549 131.036C-88.2549 130.253 -88.2549 130.253 -88.2549 129.861C-88.6467 129.469 -89.0386 129.861 -89.8221 129.469C-89.8221 129.469 -90.6056 129.077 -90.9974 128.686C-91.7809 127.902 -91.3891 125.943 -90.9974 125.551C-90.6056 124.768 -90.2139 123.984 -89.8221 122.417C-89.8221 122.026 -89.8221 122.026 -89.8221 121.634C-90.2139 121.242 -91.3891 122.026 -92.1726 123.593C-92.5644 124.376 -92.5644 124.376 -92.9562 125.551C-93.348 125.943 -94.1314 127.119 -95.3067 127.51C-95.6985 127.51 -96.0905 127.902 -96.4823 127.51C-96.874 127.51 -96.8738 127.119 -97.2656 127.119C-97.6574 127.119 -98.0493 127.902 -98.4411 127.51C-98.8329 127.51 -99.2245 127.119 -99.2245 126.727C-99.2245 125.943 -98.0493 125.943 -97.6575 124.768C-97.2657 123.984 -97.2656 122.417 -97.2656 122.417C-97.6574 122.417 -98.0493 122.809 -98.4411 123.201C-98.8329 123.984 -98.4409 124.376 -99.2245 125.16L-99.6164 125.551C-99.6164 125.551 -99.6162 125.16 -99.2245 122.809C-98.8327 121.242 -98.8328 121.242 -98.8328 120.458C-98.8328 118.891 -98.8328 118.891 -98.8328 117.716C-98.8328 116.149 -98.0492 116.149 -98.0492 114.582C-98.0492 113.798 -98.0493 113.798 -97.6575 113.407C-97.2657 113.015 -96.8739 112.623 -96.0903 112.623C-95.6986 112.623 -95.3067 112.231 -95.3067 112.623C-95.3067 112.623 -94.9151 113.015 -95.6987 115.757C-96.0904 117.324 -96.0903 117.324 -96.0903 117.716C-95.6986 118.108 -94.9151 118.5 -94.9151 118.891C-94.9151 119.283 -94.9151 119.283 -94.9151 119.675C-94.9151 120.458 -94.5233 120.85 -94.1315 120.85C-93.7397 121.242 -93.348 121.242 -92.9562 121.634C-92.1727 122.026 -91.3891 122.417 -90.9974 122.025C-90.6056 121.634 -90.6056 121.242 -89.8221 120.85C-89.4303 120.458 -88.6468 120.458 -88.6468 120.458C-88.2551 120.85 -89.0384 121.242 -89.4302 122.417C-89.4302 123.201 -89.4302 123.201 -89.4302 123.593C-89.0384 123.984 -88.6468 123.593 -87.8632 123.984C-87.4715 124.376 -87.0797 124.376 -86.688 124.768C-86.2962 125.16 -84.3372 126.335 -83.1619 125.943C-82.7702 125.943 -82.7702 125.551 -81.9867 125.16C-80.8114 124.376 -80.0279 124.768 -76.8937 124.768C-74.9348 124.768 -73.3677 124.768 -73.3677 125.16C-73.3677 125.551 -73.7593 125.551 -73.7593 125.943C-73.7593 126.335 -72.5842 126.335 -72.1924 126.727C-71.8006 127.119 -72.5842 127.902 -72.1924 128.686C-71.8006 129.077 -71.4089 129.077 -71.0171 129.861C-71.0171 130.253 -70.6252 130.253 -70.6252 131.428C-70.2334 132.995 -70.6253 133.387 -70.2335 134.17C-70.2335 134.954 -69.4498 135.738 -67.8828 137.305C-66.7074 138.48 -66.3157 138.872 -65.9239 139.655C-65.9239 140.047 -65.924 140.047 -65.5322 140.439C-64.7487 140.831 -63.9651 139.263 -63.5734 139.263C-63.1816 139.263 -63.965 140.439 -63.965 142.398C-63.965 142.789 -63.965 143.181 -63.965 143.573C-63.5733 145.924 -63.5735 147.099 -63.1817 148.666C-62.7899 151.8 -63.5733 152.192 -62.7898 153.759C-62.398 154.934 -62.0064 154.934 -61.2228 156.11C-59.6558 158.852 -62.0062 160.811 -60.8309 163.553C-60.0474 165.512 -58.0886 165.512 -57.6968 167.079C-57.6968 167.863 -58.0886 167.863 -58.4804 169.43C-58.8722 170.997 -58.4802 172.172 -58.0885 173.348C-57.6967 174.131 -57.6969 174.915 -57.3051 175.306C-56.9134 175.698 -56.1298 176.873 -54.5627 176.873C-53.7791 176.873 -52.9955 176.482 -52.2119 175.698C-51.4284 174.915 -51.0367 174.131 -50.645 173.739C-50.2532 173.348 -50.2531 173.348 -50.2531 172.956C-49.8613 172.172 -50.2532 171.389 -49.8614 170.997C-49.8614 170.997 -49.4696 170.997 -49.0778 170.997C-48.686 170.997 -48.686 170.997 -48.2942 170.997C-47.9024 170.997 -47.1189 169.43 -47.1189 167.471C-47.1189 165.904 -47.5107 165.512 -47.1189 164.337C-46.7272 162.77 -45.9438 162.77 -45.552 161.594C-44.7684 159.244 -47.5108 157.285 -46.7273 154.934C-46.3355 153.759 -45.1602 152.975 -44.7684 153.367C-44.3766 153.367 -44.3765 154.151 -44.3765 154.151C-43.9847 154.151 -43.9849 152.584 -42.8095 152.192C-42.4178 151.8 -42.4178 152.192 -41.6343 151.8C-41.2425 151.8 -40.0672 151.408 -39.6754 150.625C-39.2836 150.233 -39.6753 149.841 -39.2835 149.449C-38.8917 148.666 -38.1082 149.058 -37.3246 148.666C-36.5411 148.274 -36.1493 147.491 -34.5822 146.315C-33.4069 145.14 -33.7987 145.14 -32.6233 144.357C-31.448 143.181 -30.6647 142.398 -29.8811 142.006C-27.9223 140.831 -26.747 141.222 -25.9634 140.047C-25.5717 139.263 -25.5715 138.872 -25.5715 138.872C-25.5715 138.088 -25.5715 138.088 -25.5715 137.696C-25.1797 137.305 -24.7881 136.521 -24.0046 136.913C-23.6128 136.913 -23.221 137.305 -23.221 137.696C-23.221 137.696 -23.221 137.696 -23.221 137.305C-23.221 136.913 -21.6537 136.521 -20.8702 136.913C-20.4784 137.305 -20.8703 138.088 -20.4785 138.088C-19.695 138.48 -18.5196 136.129 -16.9525 136.129C-15.7772 136.129 -15.7772 137.305 -14.9936 137.305C-13.8183 137.305 -13.035 134.954 -12.2514 134.954C-11.4679 134.954 -12.2513 137.305 -10.6842 139.655C-9.9007 140.831 -8.33357 142.006 -7.9418 142.006C-7.9418 142.398 -7.9419 143.181 -7.55013 143.965C-7.55013 144.356 -7.1584 145.14 -6.37486 145.14C-5.98309 145.14 -5.98304 144.748 -5.59127 144.748C-5.1995 144.748 -5.19946 145.924 -4.80768 147.491C-4.41591 150.233 -4.41601 150.625 -4.41601 151.017C-4.80778 152.192 -5.98295 152.584 -5.98295 153.367C-5.98295 153.759 -4.80773 154.151 -3.63242 154.151C-2.06532 154.543 -1.28169 154.543 -0.106384 154.151C1.06894 153.759 1.06885 152.584 2.24416 152.584C3.02769 152.584 4.20306 152.975 4.9866 153.367C5.37837 153.759 5.37833 154.543 6.16187 157.677C6.55363 161.594 6.94536 161.986 7.33713 162.378C7.33713 162.77 8.12082 163.553 7.72905 163.553C7.33728 163.945 6.55379 163.553 6.55379 163.553C6.55379 163.553 7.33713 164.337 7.33713 164.729C7.33713 165.512 5.77019 165.512 5.77019 165.904C5.77019 165.904 6.94536 165.904 7.33713 166.296C7.7289 166.687 7.7289 167.079 7.33713 169.43C7.33713 170.605 7.33723 170.605 6.94547 171.389C6.94547 172.564 6.55379 173.348 6.55379 174.523C6.55379 175.306 6.55379 176.09 6.55379 177.265C6.55379 178.441 6.55368 178.832 6.94547 178.832C7.33723 178.832 7.33728 177.265 7.72905 177.265C8.12082 177.265 8.51245 177.657 9.29599 179.224C11.2549 182.358 10.8632 182.358 11.6468 182.75C12.0385 183.142 12.4303 183.534 12.822 183.925C13.2138 184.709 12.822 184.709 12.822 185.492C12.822 186.276 13.2139 186.276 13.6056 188.235C13.9974 189.802 13.6055 190.194 13.9973 190.585C14.3891 191.369 15.1726 191.369 15.9561 192.153C16.3479 192.936 16.3481 192.936 16.3481 193.72C16.7398 194.895 17.915 194.895 19.8739 195.679C21.0492 196.462 22.2245 197.637 23.7916 198.029C24.1833 198.029 24.5751 198.421 24.9668 198.029C25.3586 197.637 25.3587 196.854 25.7504 196.854C25.7504 196.462 25.7505 195.679 25.3587 195.287C24.5752 194.111 24.1833 194.111 23.7916 192.936C23.7916 192.544 23.008 191.369 23.008 189.802C23.008 188.627 23.3999 188.627 23.3999 187.451C23.3999 187.06 23.3997 186.276 23.008 185.492C22.2244 184.317 21.4411 184.709 20.2658 183.534C19.4822 182.75 19.8739 182.358 18.6986 181.183C17.5233 180.008 17.1314 180.008 17.1314 180.008C16.7396 180.008 16.7398 180.399 16.3481 180.791C15.5645 181.183 14.3891 178.832 13.9973 178.441C13.6055 177.265 12.822 176.482 12.822 175.306C12.822 174.915 12.822 174.523 12.822 174.131C12.4303 173.739 11.6466 174.915 11.2549 174.523C10.8631 174.131 11.6466 172.956 11.2549 172.564C10.8631 172.172 10.0797 172.956 9.6879 172.956C9.29613 172.564 10.0796 170.997 10.8632 167.863C11.2549 166.687 11.255 166.296 11.6468 164.729C12.0385 162.77 12.4303 162.77 12.4303 161.594C12.4303 160.419 12.4303 160.419 12.822 160.027C13.6056 159.244 15.1727 159.244 15.5645 159.636C15.9562 160.027 14.7808 160.419 15.1726 161.594C15.1726 161.986 15.5645 162.378 15.5645 162.77C16.7398 164.337 18.6985 164.337 19.8739 164.337C19.8739 164.337 20.2658 164.337 20.2658 163.945C20.2658 163.553 19.0903 163.553 19.0903 163.161C19.0903 162.77 19.8739 162.378 20.6575 162.378C21.441 162.77 21.441 163.553 21.441 164.729C21.441 165.904 21.4409 166.296 21.8327 167.079C21.8327 167.471 22.2245 168.255 22.6163 168.255C23.0081 168.255 23.0081 167.079 23.3999 167.079C23.7917 167.079 23.7916 167.471 23.7916 167.471C23.7916 167.863 23.0081 168.646 23.3999 168.646C23.3999 168.646 23.7916 168.646 24.5752 168.646C24.9669 168.646 25.7504 169.038 25.7504 169.038C26.534 169.43 27.3176 170.213 27.3176 171.389C27.3176 171.78 27.3175 172.172 26.9257 172.956C26.5339 173.739 26.534 174.131 26.534 174.523C26.534 174.523 26.5339 175.306 26.9257 175.306C27.3175 175.698 28.1011 174.915 28.4929 174.915C29.2764 174.523 29.2764 174.131 29.6681 173.348C30.4517 172.564 31.627 173.348 32.8023 172.172C33.5858 171.389 33.1942 170.605 33.9778 169.43C34.3695 168.646 35.1529 168.646 37.5036 167.471C39.8542 166.296 41.0295 165.904 41.4213 165.12C41.813 164.337 41.4214 163.161 41.0296 161.203C39.4625 155.718 40.246 155.718 39.4624 153.759C39.4624 153.367 37.8954 151.8 34.3694 148.666C34.3694 148.666 33.1941 147.099 30.4517 143.573C30.06 143.181 29.6681 142.398 29.6681 141.222C29.6681 140.047 30.4518 139.655 31.2353 138.872C33.9777 135.738 35.5448 134.17 37.1119 133.779C37.5037 133.779 39.0706 133.387 40.6377 134.17C41.0295 134.17 42.2049 135.346 42.2049 136.521C42.2049 136.913 42.2049 137.305 42.2049 137.696C42.5966 138.088 43.772 138.088 44.1637 137.696C44.5555 137.305 43.772 136.521 44.1637 135.737C44.1637 135.737 44.5555 134.954 44.9473 134.562C45.7309 133.779 46.9062 133.779 47.6898 133.779C48.4733 133.779 48.4732 134.17 49.2567 134.17C50.0403 134.17 50.8239 134.17 53.5663 131.82C55.5252 130.253 55.9169 129.861 56.7005 129.469C57.8758 129.469 58.2674 129.861 59.051 129.861C60.6181 129.469 60.2263 127.902 62.1851 126.335C62.9687 125.943 63.7522 125.551 64.9276 124.376C65.3193 123.984 65.7111 123.593 66.1028 123.201C66.1028 122.417 65.7112 122.026 65.7112 121.242C65.7112 120.458 66.103 119.675 66.4947 118.891C68.0618 116.541 69.237 116.541 70.0205 114.974C70.0205 114.582 70.0205 114.582 70.0205 112.623C70.0205 110.272 70.4124 110.272 70.4124 109.097C70.4124 109.097 70.0206 107.138 68.8453 105.571C68.4535 105.179 68.0617 104.788 68.0617 104.788C67.6699 104.396 67.2783 104.004 67.2783 104.004C66.103 103.221 67.2783 100.87 66.4947 99.6945C65.7112 98.5192 63.3606 98.5193 61.4018 98.1275C60.6182 98.1275 60.2263 98.1275 60.2263 97.7357C59.8345 96.9521 60.618 94.6015 62.1851 93.818C63.7522 93.0344 64.9276 93.818 65.7112 93.0344C66.1029 92.6427 66.1029 91.8591 65.7112 91.4674C65.3194 91.0756 64.9277 91.4674 63.3606 91.4674C62.1853 91.0756 61.7935 90.6838 61.4018 90.6838C61.01 90.6838 60.2263 91.0756 60.2263 91.4674C59.8345 91.8591 59.4429 92.2509 59.4429 92.2509C59.0511 92.2509 59.051 91.8591 59.051 91.0756C59.051 91.0756 58.6592 90.2921 58.2674 89.5085C57.0921 88.3332 55.5252 88.3332 55.5252 87.9414C55.5252 87.5496 57.0923 87.9414 57.484 87.1579C57.8758 86.3743 57.4839 85.5908 57.8757 85.199C58.2675 84.8072 59.0511 85.199 59.4429 84.8072C60.2264 84.4155 59.8345 83.2402 60.2263 83.2402C60.618 83.2402 61.7934 84.0237 61.7934 84.8072C61.7934 85.199 61.4018 85.5908 61.4018 85.9825C61.4018 86.3743 62.577 86.7661 62.577 87.1579C62.577 87.5496 61.7934 87.5496 61.7934 87.9414C61.7934 88.3332 62.5771 88.3332 63.3606 87.9414C64.5359 87.5496 64.1442 86.7661 65.3195 85.9825C66.4948 85.199 68.4536 85.5908 69.2372 86.3743C69.629 86.7661 70.0205 87.1579 70.0205 87.9414C70.0205 88.7249 70.0205 89.1168 70.0205 89.5085C70.0205 89.5085 70.4125 90.292 71.196 90.6838C71.9796 91.0756 72.3714 90.292 73.1549 90.6838C73.5467 90.6838 73.9382 91.0756 73.9382 91.4674C73.9382 91.8591 73.1549 92.2509 73.1549 92.6426C73.1549 93.0344 74.3301 93.0345 75.5054 94.2098C75.8972 94.6015 76.289 94.9933 76.289 95.7768C75.8972 96.5604 74.7218 96.1686 74.7218 96.5604C74.7218 96.9521 75.1137 97.3439 76.289 98.5192C76.6808 98.911 76.6808 98.911 77.0726 98.911C77.4644 98.911 77.4642 97.7357 77.856 97.7357C78.2477 97.7357 78.6397 98.5192 79.0315 98.5192C79.4232 98.5192 79.4232 96.9521 80.2067 96.5604C80.9903 96.1686 81.3819 96.9521 81.7737 96.5604C82.1655 96.1686 81.7738 95.7768 81.382 94.6015C80.2067 92.2509 79.8149 91.0756 79.4231 90.2921C79.0314 89.9003 78.2478 89.1167 77.4643 88.3332C77.0725 87.9414 76.289 87.5496 75.5054 87.1579C74.7219 86.7661 74.3302 86.3744 74.3302 85.5908C74.3302 85.199 74.3301 85.199 74.7218 84.8072C75.1136 84.0237 75.8972 84.0237 76.289 83.632C76.6808 83.2402 76.6807 82.8484 76.6807 82.4566C77.0725 80.8895 76.2889 80.4977 76.6807 80.106C77.0725 79.3224 78.6397 79.7142 79.0315 78.9307C79.0315 78.5389 78.6396 78.1472 78.6396 77.7554C78.6396 77.7554 79.4231 78.1471 80.5984 78.1471C81.7737 78.5389 82.1655 78.5389 82.5573 78.5389C82.5573 78.5389 82.949 78.1472 83.7325 75.7965C84.1243 74.2294 84.1245 73.8376 84.1245 73.0541C84.5162 71.8788 84.908 71.8788 84.908 71.0952C84.908 70.3117 84.1243 69.9199 83.7325 68.7446C83.3408 67.5693 83.7326 67.1776 83.3409 66.0022C82.5573 63.6516 79.815 63.2598 80.2067 62.4763C80.2067 62.0845 80.9902 62.0845 81.382 62.0845C82.1655 62.0845 82.949 62.4763 84.5161 65.2187C86.475 67.9611 86.0833 67.9611 87.2586 69.1364C88.0421 69.9199 88.8256 70.3117 89.6091 71.487C90.0009 71.8788 90.3927 72.6623 90.3927 72.6623C90.3927 72.6623 90.0009 71.8788 90.3927 71.487C90.7845 71.0952 91.9599 71.8788 91.9599 71.8788C91.9599 71.8788 91.568 71.0952 89.6091 70.3117C88.042 69.1364 87.6503 69.1364 87.2586 68.3528C86.8668 67.9611 86.8669 67.1775 86.8669 66.7858C87.2587 66.394 87.6502 66.7858 87.6502 66.7858C87.6502 66.394 86.0832 65.2187 85.6914 64.8269C81.3819 61.301 81.3821 61.6927 80.9903 61.3009C80.9903 61.3009 80.2068 60.1256 79.0315 59.3421C78.6397 59.3421 78.6396 58.9504 78.2479 58.9504C77.8561 58.9504 77.8561 59.3421 77.4643 59.3421C76.6807 59.7339 75.8972 57.3832 74.3302 57.3832C73.9384 57.3832 73.5467 57.3833 73.1549 57.775C73.1549 58.1668 73.5466 58.5586 73.5466 58.5586C73.5466 58.9503 72.763 58.9503 72.763 58.5586C72.3712 58.1668 72.3712 57.3832 71.9794 57.3832C71.9794 57.3832 71.9795 58.1668 71.5877 58.1668C71.1959 58.1668 71.196 57.3833 70.4124 56.9915C69.6289 56.5997 69.6289 56.9915 68.4536 56.5997C68.4536 56.5997 67.2783 56.2079 67.2783 55.4244C67.2783 55.0326 68.0618 55.0327 68.4536 54.2491C68.4536 53.8573 68.8453 53.8573 68.8453 53.0738C68.8453 52.682 68.8454 52.2902 69.2372 51.1149C69.2372 50.3314 69.2371 50.3314 69.6289 49.9396C70.0206 49.1561 71.5878 50.3314 74.3302 49.9396C75.1137 49.9396 75.5055 49.5478 76.289 49.9396C77.0726 50.3314 77.0724 50.7232 77.856 51.1149C78.6395 51.5067 79.815 51.5067 80.2067 51.1149C80.2067 51.1149 79.8149 50.7231 78.6396 49.9396C77.4642 49.1561 76.6807 48.3725 76.6807 48.3725C76.6807 47.9808 77.8562 48.3725 79.0315 49.1561C79.4232 49.5478 80.2067 49.9396 80.2067 49.9396C80.2067 49.9396 80.2067 49.5478 80.2067 49.1561C80.2067 49.1561 80.9902 49.5478 81.382 49.9396C82.1655 50.7231 82.5572 50.7231 83.7325 51.5067C84.9078 52.2902 84.908 52.682 84.908 52.682C84.908 53.0738 83.7325 52.682 83.7325 52.682C83.7325 53.0738 85.2997 54.2491 86.475 55.0326C88.4338 56.5997 88.4338 56.208 89.6091 56.9915C91.1762 58.1668 91.1764 58.5586 92.7435 59.7339C93.1352 59.7339 92.7433 59.7339 94.3104 60.9092C95.8775 62.0845 96.2693 62.0845 96.2693 62.4763C97.4446 63.2598 97.8364 64.4351 97.8364 64.4351C97.8364 64.4351 97.8364 63.2598 97.0529 62.4763C96.2693 61.6927 95.8776 61.301 94.7023 60.1257C94.7023 59.7339 94.3105 59.7339 93.9187 58.9504C93.527 58.5586 93.9186 58.1668 93.5268 57.775C93.135 56.5997 91.5681 56.9915 90.001 55.8162C88.8257 55.0326 89.2173 54.6409 87.6502 53.8573C86.4749 53.0738 85.6916 53.0738 84.908 51.8985C84.5163 51.5067 84.1245 51.1149 84.1245 50.7231C84.1245 53.0738 87.2586 53.8573 88.0422 54.2491ZM-67.0994 77.3636C-67.4912 77.7554 -67.8829 77.7554 -69.4499 78.5389C-71.017 79.3225 -71.8006 79.7142 -72.1924 80.106C-72.5842 80.8895 -71.8006 81.2813 -72.1924 82.4566C-72.5842 83.2402 -72.5841 83.2402 -73.3677 84.4155C-74.1512 85.9826 -73.7594 86.3744 -74.5429 87.5497C-75.3265 88.3332 -75.7183 88.3332 -76.1101 89.1167C-76.5019 89.9003 -76.5019 90.2921 -76.8937 91.4674C-76.8937 91.8591 -77.2853 94.2097 -78.4606 95.7768C-79.6359 97.3439 -81.5949 98.5193 -81.9867 98.1275C-82.3784 97.7357 -81.9866 96.9521 -82.3783 96.5604C-82.7701 96.1686 -83.5538 96.9521 -83.9455 96.5604C-84.3373 96.1686 -83.9455 94.9933 -83.9455 94.6015C-83.5538 93.0344 -82.7701 93.0345 -81.5948 91.4674C-80.8112 90.2921 -80.8113 89.9003 -80.4195 89.5085C-79.6359 89.1168 -78.4606 89.5085 -78.4606 89.1167C-78.4606 88.725 -79.2441 88.3332 -79.6359 87.1579C-79.6359 86.3743 -79.2441 85.9826 -77.677 83.632C-76.8935 82.4566 -76.8936 82.0648 -76.1101 81.2813C-75.7183 80.4978 -74.9347 79.7142 -74.5429 78.9307C-72.9758 76.9718 -70.6252 76.1883 -69.8416 75.7965C-68.6663 75.4048 -66.7076 74.6212 -66.3158 75.4047C-66.3158 75.7965 -66.7076 76.9718 -67.0994 77.3636Z" fill="#89C87C"/>
<path opacity="0.3" d="M98.2294 59.7338C113.508 82.8483 122.128 110.272 122.128 140.047C122.128 221.144 56.3098 287.353 -25.1786 287.353C-54.9532 287.353 -82.3772 278.734 -105.492 263.455C-79.243 303.807 -33.7976 330.056 17.9162 330.056C99.0129 330.056 165.222 264.238 165.222 182.75C165.222 131.428 138.582 85.9824 98.2294 59.7338Z" fill="#072730"/>
</g>
</svg>
