<svg width="1920" height="5267" viewBox="0 0 1920 5267" fill="none" xmlns="http://www.w3.org/2000/svg">
<g opacity="0.5" filter="url(#filter0_f_1366_3361)">
<circle cx="271.5" cy="420.5" r="358.5" fill="#0070BA"/>
</g>
<g filter="url(#filter1_f_1366_3361)">
<circle cx="1862.5" cy="511.5" r="161.5" transform="rotate(180 1862.5 511.5)" fill="#FFB100"/>
</g>
<g opacity="0.75">
<path d="M1751.66 717.386L1758.2 708.728L1723.56 681.997L1716.7 690.507L1751.66 717.386Z" fill="#FCA311"/>
<path d="M1740.33 694.7L1731.67 688.15L1725.12 696.813L1733.78 703.362L1740.33 694.7Z" fill="#0051BA"/>
<path d="M1715.16 675.654L1706.49 669.104L1699.95 677.767L1708.61 684.316L1715.16 675.654Z" fill="#FCA311"/>
<path d="M1723.72 682.123L1715.05 675.574L1708.51 684.236L1717.17 690.785L1723.72 682.123Z" fill="#0051BA"/>
<g opacity="0.8">
<path d="M1724.35 722.371C1726.63 724.092 1729.87 723.644 1731.59 721.364L1731.73 721.186C1733.45 718.906 1733 715.667 1730.72 713.946L1730.6 713.839C1728.32 712.117 1725.08 712.565 1723.36 714.846L1723.22 715.023C1721.5 717.304 1721.95 720.542 1724.23 722.264L1724.35 722.371Z" fill="#5FE8FF"/>
</g>
<g opacity="0.5">
<path d="M1721.42 727.448C1726.51 731.308 1733.85 730.321 1737.76 725.217L1738.07 724.807C1741.93 719.714 1740.94 712.375 1735.83 708.472L1735.48 708.193C1730.39 704.333 1723.05 705.32 1719.14 710.425L1718.83 710.834C1714.97 715.927 1715.96 723.266 1721.07 727.17L1721.42 727.448Z" fill="#5FE8FF"/>
</g>
<path d="M1725.66 720.506C1727.06 721.615 1729.1 721.375 1730.21 719.968C1731.32 718.561 1731.08 716.521 1729.67 715.411C1728.27 714.302 1726.23 714.543 1725.12 715.95C1724.01 717.356 1724.25 719.396 1725.66 720.506Z" fill="#5FE8FF"/>
<path d="M1726.45 719.57C1727.32 720.222 1728.59 720.07 1729.24 719.195C1729.89 718.321 1729.74 717.056 1728.86 716.404C1727.99 715.752 1726.72 715.904 1726.07 716.778C1725.38 717.665 1725.57 718.918 1726.45 719.57Z" fill="white"/>
<g opacity="0.8">
<path d="M1720.59 717.547C1722.87 719.268 1726.11 718.82 1727.83 716.539L1727.97 716.362C1729.69 714.082 1729.24 710.843 1726.96 709.122L1726.84 709.014C1724.56 707.293 1721.32 707.741 1719.6 710.022L1719.46 710.199C1717.74 712.479 1718.18 715.718 1720.46 717.439L1720.59 717.547Z" fill="#5FE8FF"/>
</g>
<path d="M1721.9 715.691C1723.3 716.801 1725.34 716.56 1726.45 715.153C1727.56 713.747 1727.32 711.707 1725.91 710.597C1724.51 709.487 1722.47 709.728 1721.36 711.135C1720.25 712.542 1720.49 714.582 1721.9 715.691Z" fill="#5FE8FF"/>
<path d="M1722.69 714.696C1723.55 715.375 1724.79 715.229 1725.47 714.37C1726.15 713.511 1726.01 712.264 1725.15 711.585C1724.29 710.906 1723.04 711.052 1722.36 711.911C1721.68 712.771 1721.83 714.017 1722.69 714.696Z" fill="white"/>
<g opacity="0.8">
<path d="M1730.9 724.861C1733.18 726.582 1736.42 726.134 1738.14 723.853L1738.28 723.676C1740 721.396 1739.55 718.157 1737.27 716.436L1737.15 716.328C1734.87 714.607 1731.63 715.055 1729.91 717.336L1729.77 717.513C1728.05 719.793 1728.49 723.032 1730.77 724.753L1730.9 724.861Z" fill="#5FE8FF"/>
</g>
<path d="M1732.14 723.033C1733.54 724.142 1735.58 723.901 1736.69 722.494C1737.8 721.087 1737.56 719.047 1736.16 717.937C1734.75 716.828 1732.71 717.069 1731.6 718.476C1730.49 719.884 1730.73 721.923 1732.14 723.033Z" fill="#5FE8FF"/>
<path d="M1732.95 722.072C1733.82 722.724 1735.09 722.572 1735.74 721.697C1736.39 720.823 1736.24 719.557 1735.36 718.905C1734.49 718.253 1733.22 718.406 1732.57 719.28C1731.92 720.155 1732.07 721.42 1732.95 722.072Z" fill="white"/>
<path d="M1721.32 711.054C1721.63 710.644 1722.22 710.251 1722.68 710.222C1723.14 710.192 1723.8 710.389 1724.21 710.699L1725.37 711.554C1725.78 711.864 1726.23 712.49 1726.36 712.969C1726.47 713.404 1726.3 714.15 1725.99 714.56L1725.71 714.914C1725.4 715.324 1724.82 715.432 1724.4 715.079L1721.25 712.705C1720.84 712.395 1720.73 711.818 1721.08 711.396L1721.32 711.054Z" fill="#71F2FF"/>
<path d="M1731.72 718.901C1732.03 718.492 1732.63 718.099 1733.09 718.069C1733.55 718.04 1734.21 718.237 1734.62 718.547L1735.78 719.401C1736.19 719.712 1736.63 720.338 1736.76 720.817C1736.88 721.252 1736.71 721.998 1736.4 722.408L1736.12 722.762C1735.81 723.172 1735.23 723.28 1734.81 722.926L1731.65 720.553C1731.24 720.243 1731.14 719.665 1731.49 719.244L1731.72 718.901Z" fill="#71F2FF"/>
<path d="M1725.19 714.54C1725.5 714.131 1726.2 713.759 1726.7 713.717L1727.06 713.667C1727.56 713.626 1728.32 713.843 1728.77 714.141L1731.05 715.863C1731.46 716.173 1731.92 716.843 1732.05 717.322L1732.19 717.844C1732.33 718.366 1732.16 719.112 1731.84 719.522L1730.99 720.684C1730.68 721.094 1730.1 721.202 1729.68 720.848L1724.55 717C1724.14 716.69 1724.03 716.112 1724.38 715.691L1725.19 714.54Z" fill="#71F2FF"/>
<path d="M1721.71 710.434C1722.02 710.024 1722.62 709.632 1723.08 709.602C1723.53 709.573 1724.19 709.769 1724.6 710.079L1725.77 710.934C1726.18 711.244 1726.62 711.871 1726.75 712.349C1726.88 712.828 1726.69 713.531 1726.38 713.94L1726.11 714.295C1725.8 714.704 1725.22 714.813 1724.8 714.459L1721.64 712.086C1721.23 711.775 1721.12 711.198 1721.48 710.777L1721.71 710.434Z" fill="#79768C"/>
<path d="M1725.38 710.711L1726.52 713.763L1728.84 713.374L1725.38 710.711Z" fill="#353158"/>
<path d="M1731.5 715.275L1732.61 718.382L1734.97 717.938L1731.5 715.275Z" fill="#353158"/>
<path d="M1732.12 718.281C1732.43 717.872 1733.02 717.479 1733.48 717.45C1733.94 717.42 1734.6 717.617 1735.01 717.927L1736.17 718.782C1736.58 719.092 1737.03 719.718 1737.16 720.197C1737.27 720.632 1737.1 721.378 1736.79 721.788L1736.51 722.142C1736.2 722.552 1735.62 722.66 1735.2 722.306L1732.05 719.933C1731.64 719.623 1731.53 719.045 1731.88 718.624L1732.12 718.281Z" fill="#79768C"/>
<path d="M1725.54 713.932C1725.85 713.523 1726.55 713.15 1727.05 713.109L1727.41 713.059C1727.91 713.018 1728.67 713.235 1729.12 713.533L1731.4 715.255C1731.81 715.565 1732.27 716.235 1732.4 716.713L1732.54 717.236C1732.68 717.758 1732.51 718.504 1732.2 718.914L1731.34 720.076C1731.03 720.485 1730.45 720.594 1730.03 720.24L1724.9 716.392C1724.49 716.081 1724.38 715.504 1724.73 715.083L1725.54 713.932Z" fill="#878498"/>
<path d="M1721.33 710.91L1721.78 710.323C1722.05 709.969 1722.62 709.632 1723.03 709.614C1723.49 709.584 1724.15 709.781 1724.56 710.091L1725.56 710.85C1725.15 710.54 1724.43 710.312 1724.03 710.373C1723.57 710.403 1723.01 710.74 1722.77 711.083L1722.32 711.67C1722.05 712.024 1722.19 712.546 1722.6 712.856L1721.6 712.097C1721.2 711.831 1721.05 711.265 1721.33 710.91Z" fill="#353158"/>
<path d="M1727.23 703.871C1727.4 703.639 1727.67 703.612 1727.91 703.783L1741.06 713.694C1741.29 713.865 1741.32 714.138 1741.15 714.37L1737.27 719.562C1737.1 719.794 1736.82 719.821 1736.59 719.65L1723.44 709.739C1723.21 709.568 1723.18 709.295 1723.35 709.063L1727.23 703.871Z" fill="#353158"/>
<path d="M1741.45 685.226C1741.63 684.993 1741.9 684.967 1742.13 685.138L1755.28 695.049C1755.51 695.22 1755.54 695.493 1755.37 695.725L1751.49 700.916C1751.32 701.149 1751.05 701.175 1750.81 701.004L1737.66 691.094C1737.43 690.923 1737.4 690.65 1737.57 690.417L1741.45 685.226Z" fill="#353158"/>
<path d="M1740.11 684.56L1748.81 691.092L1753.02 694.257L1756.75 697.036C1757.16 697.346 1757.45 697.221 1757.42 696.762L1756.53 686.317C1756.5 685.859 1756.1 685.22 1755.69 684.91L1753.76 683.467L1751.55 681.821C1751.14 681.511 1750.44 681.326 1749.96 681.455L1740.18 683.794C1739.74 683.867 1739.7 684.25 1740.11 684.56Z" fill="#FFCC49"/>
<path d="M1726.97 702.542C1727.28 702.132 1727.86 702.024 1728.28 702.378L1741.18 712.074C1741.59 712.384 1741.7 712.962 1741.35 713.383L1738.01 717.822C1737.7 718.232 1737.13 718.34 1736.7 717.986L1723.8 708.29C1723.39 707.98 1723.28 707.402 1723.63 706.981L1726.97 702.542Z" fill="#D0C9AF"/>
<path d="M1728.53 701.565C1728.44 701.074 1728.65 700.273 1728.96 699.864L1738.48 687.189C1738.79 686.779 1739.37 686.671 1739.79 687.024L1752.7 696.721C1753.11 697.031 1753.22 697.608 1752.86 698.03L1743.34 710.705C1743.03 711.114 1742.34 711.53 1741.87 711.658L1740.1 712.038C1739.57 712.134 1738.82 711.961 1738.41 711.651L1729.7 705.076C1729.29 704.765 1728.87 704.084 1728.83 703.582L1728.53 701.565Z" fill="#D0C9AF"/>
<path d="M1730.85 713.539L1723.84 708.279C1723.43 707.969 1723.29 707.447 1723.57 707.092L1727.08 702.421C1727.35 702.066 1727.91 702.057 1728.32 702.367L1728.73 702.677L1728.56 701.51C1728.48 701.064 1728.67 700.361 1728.9 700.018L1738.6 687.111C1738.88 686.756 1739.44 686.747 1739.85 687.057L1746.85 692.317L1730.85 713.539Z" fill="#FFF8F8"/>
<path d="M1726.08 708.984L1729.59 704.312C1729.87 703.958 1730.25 703.81 1730.48 703.98L1730.71 704.151L1730.83 703.188C1730.86 702.805 1731.13 702.221 1731.41 701.866L1741.1 688.959C1741.38 688.604 1741.76 688.456 1741.99 688.627L1747.31 692.614C1747.54 692.785 1747.51 693.212 1747.23 693.567L1737.54 706.474C1737.26 706.828 1736.76 707.241 1736.44 707.421L1735.62 707.829L1735.74 707.936C1735.97 708.107 1735.94 708.534 1735.67 708.888L1732.16 713.56C1731.88 713.914 1731.5 714.063 1731.27 713.892L1725.96 709.904C1725.78 709.765 1725.8 709.338 1726.08 708.984Z" fill="#FFF8F8"/>
<path d="M1736.88 699.326C1737.29 699.636 1737.88 699.571 1738.19 699.161L1740.39 696.239C1740.7 695.829 1740.64 695.24 1740.23 694.93L1738.89 693.936C1738.48 693.626 1737.89 693.691 1737.58 694.1L1735.38 697.023C1735.07 697.432 1735.13 698.022 1735.54 698.332L1736.88 699.326Z" fill="#6B6B81"/>
<path d="M1727.75 701.961L1736.09 708.214L1743.15 713.506L1744.43 713.397C1744.89 713.368 1745.5 713.018 1745.77 712.664L1737.54 706.474L1727.66 699.044C1727.39 699.398 1727.29 700.078 1727.4 700.513L1727.75 701.961Z" fill="#6D6B7F"/>
<path d="M1739.55 720.07C1739.78 720.241 1740.1 720.203 1740.27 719.97L1740.38 719.848C1740.55 719.616 1740.51 719.299 1740.28 719.129L1723.12 706.279C1722.89 706.108 1722.57 706.147 1722.4 706.379L1722.29 706.501C1722.12 706.733 1722.16 707.05 1722.39 707.221L1739.55 720.07Z" fill="#5FE8FF"/>
<path d="M1736.09 708.215L1743.15 713.506L1744.43 713.397C1744.89 713.368 1745.5 713.019 1745.77 712.664L1737.54 706.474L1736.09 708.215Z" fill="#454A68"/>
<path d="M1740.11 684.561L1748.81 691.092L1753.94 683.607L1752.84 682.784L1751.66 681.885L1751.54 681.778C1751.13 681.468 1750.43 681.283 1749.95 681.411L1740.17 683.751C1739.74 683.867 1739.7 684.251 1740.11 684.561Z" fill="#FCA311"/>
<path d="M1762.87 712.326L1754.21 705.777L1747.66 714.439L1756.32 720.988L1762.87 712.326Z" fill="#0051BA"/>
<path d="M1771.4 718.765L1762.73 712.216L1756.19 720.878L1764.85 727.427L1771.4 718.765Z" fill="#FCA311"/>
<path d="M1779.96 725.233L1771.29 718.684L1764.75 727.346L1773.41 733.895L1779.96 725.233Z" fill="#0051BA"/>
<path d="M1730.99 705.896C1730.83 705.8 1730.62 705.716 1730.49 705.751L1727.07 706.574C1726.62 706.647 1726.26 707.024 1726.79 707.442L1728.88 709.166L1731.3 706.185L1730.99 705.896Z" fill="#FCA311"/>
<path d="M1730.3 709.394L1730.88 708.772C1730.88 708.772 1731.35 709.158 1731.51 709.21C1732.3 709.557 1733.09 709.019 1733.15 708.21C1733.17 707.925 1733.02 707.545 1732.78 707.331L1731.52 706.313L1729.1 709.294L1729.28 709.433C1729.34 709.465 1729.51 709.604 1729.56 709.593C1729.81 709.665 1730.01 709.705 1730.3 709.394Z" fill="#0051BA"/>
<path d="M1728.67 708.897C1728.68 708.941 1728.64 708.953 1728.67 708.897L1727.5 707.999C1727.62 707.92 1727.68 707.81 1727.8 707.732C1727.83 707.676 1727.86 707.621 1727.89 707.566C1727.91 707.467 1727.98 707.357 1728 707.258C1728.02 707.16 1728.09 707.093 1728.11 706.994C1728.15 706.939 1728.18 706.884 1728.25 706.817C1728.32 706.706 1728.44 706.628 1728.51 706.561C1728.56 706.549 1728.59 706.494 1728.59 706.494C1728.63 706.483 1728.67 706.471 1728.73 706.503C1728.78 706.535 1728.8 706.578 1728.75 706.59C1728.72 706.645 1728.65 706.712 1728.61 706.767C1728.55 706.877 1728.47 706.944 1728.45 707.043C1728.4 707.197 1728.34 707.307 1728.39 707.481C1728.4 707.525 1728.4 707.525 1728.4 707.525C1728.57 707.664 1728.7 707.771 1728.87 707.91C1728.93 707.942 1729.01 708.061 1728.99 708.16C1728.95 708.215 1728.93 708.314 1728.9 708.369C1728.97 708.444 1728.79 708.819 1728.67 708.897Z" fill="white"/>
<path d="M1728.7 707.443C1728.76 707.66 1728.98 707.788 1729.2 707.73C1729.41 707.672 1729.54 707.45 1729.48 707.233C1729.43 707.017 1729.2 706.889 1728.99 706.947C1728.77 707.005 1728.64 707.227 1728.7 707.443Z" fill="white"/>
<path d="M1732.37 708.418C1731.93 708.164 1731.84 708.187 1731.42 708.533C1731.67 708.091 1731.65 708.004 1731.3 707.584C1731.75 707.839 1731.83 707.815 1732.25 707.469C1732 707.911 1732.03 708.042 1732.37 708.418Z" fill="#FFAC35"/>
<path d="M1732.35 708.004C1732.38 708.124 1732.51 708.195 1732.63 708.163C1732.75 708.131 1732.82 708.007 1732.79 707.887C1732.75 707.767 1732.63 707.696 1732.51 707.728C1732.39 707.76 1732.32 707.884 1732.35 708.004Z" fill="#FFAC35"/>
<path d="M1732.25 707.469L1731.84 708.001L1731.3 707.584C1731.79 707.827 1731.88 707.804 1732.25 707.469Z" fill="#FFCC49"/>
<path d="M1732.75 707.943L1732.52 707.957L1732.51 707.728C1732.56 707.902 1732.6 707.89 1732.75 707.943Z" fill="#FFCC49"/>
<path d="M1729.03 707.263C1729.01 707.219 1729.01 707.219 1729.03 707.263C1729.06 707.208 1729.05 707.164 1729 707.176C1728.96 707.188 1728.95 707.144 1728.92 707.199L1728.87 707.211L1728.86 707.167C1728.89 707.112 1728.95 707.144 1728.99 707.132C1729.09 707.152 1729.1 707.196 1729.03 707.263C1729.07 707.251 1729.07 707.251 1729.03 707.263Z" fill="#FCA311"/>
<path d="M1728.88 707.254C1728.81 707.321 1728.84 707.452 1728.91 707.527C1728.98 707.602 1729.11 707.567 1729.18 707.5L1728.88 707.254Z" fill="#FCA311"/>
<path d="M1729.26 707.434C1729.29 707.379 1729.28 707.335 1729.24 707.347C1729.22 707.303 1729.18 707.315 1729.15 707.37L1729.1 707.382L1729.09 707.338C1729.12 707.283 1729.18 707.315 1729.22 707.303C1729.32 707.324 1729.33 707.367 1729.26 707.434C1729.3 707.422 1729.3 707.422 1729.26 707.434Z" fill="#FCA311"/>
<path d="M1739.35 713.472L1736.15 711.068L1734.52 713.232L1737.73 715.636L1739.35 713.472Z" fill="white"/>
<path d="M1739.36 713.48L1736.16 711.076L1735.34 712.158L1738.55 714.562L1739.36 713.48Z" fill="#C32126"/>
<path d="M1737.78 715.74L1734.5 713.26L1736.18 710.991L1739.46 713.471L1737.78 715.74ZM1734.69 713.256L1737.79 715.598L1739.34 713.55L1736.24 711.208L1734.69 713.256Z" fill="black"/>
</g>
<mask id="mask0_1366_3361" style="mask-type:alpha" maskUnits="userSpaceOnUse" x="1235" y="0" width="685" height="565">
<rect x="1235.44" width="684.564" height="565" fill="#D9D9D9"/>
</mask>
<g mask="url(#mask0_1366_3361)">
<mask id="mask1_1366_3361" style="mask-type:alpha" maskUnits="userSpaceOnUse" x="1145" y="-352" width="1143" height="1037">
<rect width="1091.44" height="460.407" transform="matrix(-0.78642 -0.617692 -0.617692 0.78642 2287.89 322.512)" fill="#D9D9D9"/>
</mask>
<g mask="url(#mask1_1366_3361)">
<path opacity="0.23" d="M2306.3 299.083C2298.59 301.208 2235.65 365.986 2139.14 380.853C2048.71 394.662 2053.01 402.319 1992.42 409.6C1931.83 416.881 1866.71 385.582 1791.88 369.617C1717.15 353.532 1620.74 299.402 1540.03 205.461C1459.32 111.519 1431.14 95.6149 1405.06 20.0649C1378.89 -55.3648 1404.42 -126.764 1399 -163.71C1393.36 -200.632 1387.84 -294.672 1447.89 -373.596L2306.3 299.083Z" fill="#DFDFDF"/>
<g opacity="0.51">
<path d="M2071.52 141.921C2071.52 141.921 2069.11 163.571 2034.46 161.849C2009.91 160.659 1984.83 165.089 1967.47 169.355C1950.32 173.595 1907.71 179.042 1890.08 174.73C1832.6 160.714 1813.38 159.428 1795.09 155.958C1776.8 152.489 1723.85 121.798 1727.26 115.722C1732.13 107.289 1769.38 135.181 1774.1 129.164C1778.92 123.027 1744.7 109.376 1724.9 100.639C1705.01 92.0215 1685.04 70.8823 1673.63 53.9444C1662.22 37.0065 1658.88 21.9323 1647.56 11.0879C1636.23 0.243529 1630.9 -6.85463 1629.17 -22.2299C1627.43 -37.6052 1620.65 -36.8993 1615.21 -54.0101C1609.78 -71.1209 1599.36 -97.9856 1609.71 -99.7749C1620.07 -101.564 1618.9 -55.9789 1630.59 -55.7488C1642.28 -55.5186 1616.73 -111.19 1620.49 -139.758C1624.23 -168.542 1637.07 -172.266 1641.66 -166.714C1646.25 -161.163 1629.85 -122.683 1637.68 -93.7634C1645.63 -64.7497 1653.66 -46.9689 1662.65 -22.0034C1671.74 2.84185 1670.05 14.161 1694.73 34.5174C1719.28 54.7792 1718.36 68.84 1774.23 97.545C1805.46 113.517 1823.28 125.761 1847.59 133.956C1871.89 142.152 1898.58 143.849 1919.74 139.454C1940.8 135.179 1944.15 124.968 1921.36 120.296C1898.23 115.556 1868.38 121.104 1834.51 101.308C1800.54 81.6323 1824.78 84.7137 1843.84 91.9042C1863 98.9743 1878.99 98.688 1876.79 94.0474C1874.6 89.4067 1818.8 82.1621 1779.09 50.9706C1739.38 19.7791 1730.74 -5.88271 1726.03 -22.4264C1721.31 -38.97 1718.76 -54.7921 1709.5 -71.9881C1700.24 -89.1842 1688.55 -89.4144 1688.37 -128.081C1688.07 -166.842 1690.27 -159.477 1690.27 -159.477L2071.52 141.921Z" fill="white" fill-opacity="0.18"/>
<path opacity="0.51" d="M2006.24 90.2622C2006.24 90.2622 1980.87 96.7982 1961.75 85.4738C1942.53 74.2697 1909.95 67.9409 1882.61 57.1679C1855.27 46.3949 1840.68 18.3964 1835.63 -0.940425C1830.58 -20.2772 1829.85 -21.8241 1805.08 -39.3357C1780.3 -56.8472 1729.67 -77.3539 1743.41 -118.129L2006.24 90.2622Z" fill="#0070BA"/>
<path d="M2000 251.393C1999.63 263.752 2136.97 231.337 2143.24 239.956C2150.81 250.38 2095.52 267.269 2045.02 269.632C1994.64 272.089 1931.78 272.34 1911.62 265.064C1891.46 257.788 1864.11 256.933 1821.89 247.512C1779.67 238.091 1740.36 197.479 1709.64 183.08C1678.92 168.681 1658.19 162.126 1640.32 128.637C1622.46 95.1468 1589.69 79.1406 1563.7 58.7244C1537.7 38.3081 1523.78 -22.2465 1528.47 -63.8962C1533.17 -105.546 1517.08 -114.293 1522.8 -180.041C1530.1 -264.398 1541.24 -290.475 1541.24 -290.475L1628.01 -222.326C1600.88 -187.789 1580.56 -108.407 1582.27 -77.8797C1583.97 -47.3523 1602.11 11.0615 1632.19 40.1404C1662.28 69.2192 1676.65 128.957 1726.33 149.688C1775.89 170.323 1778.22 179.743 1846.68 210.749C1915.14 241.755 2025.39 231.45 2025.39 231.45C2025.39 231.45 2052.93 229.339 2052.41 235.94C2051.63 242.137 2000.23 242.429 2000 251.393Z" fill="white" fill-opacity="0.8"/>
<path d="M2200.39 236.725C2200.39 236.725 2099.71 317.59 1951.79 297.331C1834.69 281.433 1782.22 275.641 1743.51 254.573C1704.7 233.626 1615.29 166.122 1607.08 164.929C1588.66 162.13 1639.9 208.61 1706.74 247.876C1739.1 266.873 1733.01 283.298 1655.43 234.425C1577.94 185.432 1510.28 74.8833 1498.15 81.8984C1488.07 87.7959 1556.29 183.02 1639.64 245.368C1722.98 307.716 1770.81 295.865 1837.37 325.574C1904.39 355.446 2007.09 358.472 2048.74 350.524C2090.49 342.455 2116.08 333.169 2152.87 326.459C2189.66 319.749 2218.97 312.413 2253.82 278.691L2200.39 236.725Z" fill="#0070BA" fill-opacity="0.18"/>
<path d="M1967.92 198.508C1967.92 198.508 1930.48 202.571 1894.34 196.56C1858.2 190.55 1842.78 187.39 1838.61 190.725C1834.43 194.061 1867.87 204.755 1915.39 209.397C1962.92 214.039 1990.38 200.386 1967.92 198.508Z" fill="#0070BA"/>
<path d="M1707.03 -10.8785C1707.03 -10.8785 1687.77 -43.3282 1678.3 -78.5899C1668.81 -114.066 1665.23 -129.33 1660.48 -131.701C1655.72 -134.072 1659.91 -99.2652 1675.37 -54.0435C1690.95 -8.72722 1714.68 10.108 1707.03 -10.8785Z" fill="#0070BA"/>
<path d="M1467 16.7633C1467 16.7633 1452.31 -25.7169 1463.57 -81.669C1480.05 -163.096 1452.76 -218.775 1503.3 -306.912L1477.67 -327.044C1477.67 -327.044 1441.87 -293.099 1443 -213.789C1444.07 -137.848 1453.02 -170.311 1447.81 -114.867C1440.97 -42.99 1448.83 12.4089 1461.88 33.9446C1475.05 55.5748 1467 16.7633 1467 16.7633Z" fill="#0070BA"/>
</g>
<path opacity="0.35" d="M1793.28 121.848C1793.28 121.848 1785.79 126.67 1772.68 116.368C1759.56 106.065 1746.53 102.836 1731.31 94.9656C1716.09 87.0955 1707.15 87.0798 1694.96 70.8897C1682.77 54.6997 1674.06 40.271 1666.59 30.7065C1659 21.0475 1654.66 9.47143 1656.27 7.42568C1657.88 5.37992 1667.34 16.1215 1675.32 29.0033C1683.18 41.7907 1690.61 50.1605 1705.02 63.0327C1719.43 75.9049 1718.73 78.2771 1745.87 90.0557C1772.76 101.645 1800.46 120.875 1793.28 121.848Z" fill="#0070BA"/>
<path opacity="0.35" d="M2064.32 140.933C2064.32 140.933 2049.73 153.801 2030.38 151.441C2011.02 149.081 1988.68 149.041 1971.77 153.47C1954.87 157.899 1932.46 166.369 1934.61 153.468C1936.77 140.567 1971.36 139.135 1962.92 125.11C1954.47 111.085 1905.55 112.932 1900.83 101.838C1896.12 90.7429 1897.4 86.8837 1874.61 79.4876C1851.82 72.0915 1842.6 59.7942 1848.25 55.0835C1853.77 50.2783 1886.92 73.9765 1904.78 77.4973C1922.54 81.1385 1941.81 84.5989 1963.23 95.9745C1984.65 107.35 2001.69 104.975 2012.79 100.264L2064.41 140.813L2064.32 140.933Z" fill="#0070BA"/>
<path opacity="0.47" d="M1698.99 149.812C1698.99 149.812 1670.21 129.731 1655.24 99.4894C1640.39 69.3423 1636.25 52.0766 1608.68 29.4518C1581.11 6.827 1555.3 -43.7989 1563.26 -94.5594C1571.22 -145.32 1558.37 -134.403 1550.66 -116.912C1542.83 -99.5151 1560.23 -61.7193 1556.13 -34.1991C1552.15 -6.58427 1564.16 27.173 1588.6 47.3403C1613.13 67.3873 1627.84 76.4091 1646.22 104.278C1664.61 132.147 1707.13 166.707 1735.48 178.666C1764.08 190.814 1698.99 149.812 1698.99 149.812Z" fill="#0070BA"/>
<path opacity="0.35" d="M2107.25 296.848C2104.93 297.562 2046.17 324.567 1967.74 312.195C1889.2 299.729 1838.61 286.845 1821.13 291.017C1803.65 295.188 1853.67 306.069 1877.84 310.465C1902.14 314.956 1960.68 335.058 1987.57 337.494C2014.54 339.81 2049.3 327.025 2069.66 321.418C2089.9 315.716 2142.1 284.922 2107.25 296.848Z" fill="#0070BA"/>
<path d="M1829.69 94.6931C1831.67 92.166 1835.42 91.6067 1838.07 93.6861C1840.59 95.671 1841.15 99.4181 1839.07 102.066C1837.09 104.593 1833.34 105.152 1830.69 103.073C1828.05 100.993 1827.61 97.3405 1829.69 94.6931Z" fill="#F1A300"/>
<path d="M1746.6 62.6148C1747.92 60.9301 1750.5 60.6203 1752.19 61.9436C1753.87 63.2669 1754.18 65.8451 1752.86 67.5299C1751.53 69.2146 1748.96 69.5244 1747.27 68.2012C1745.47 66.7834 1745.18 64.4199 1746.6 62.6148Z" fill="#067BC8"/>
<path d="M1771.47 163.485C1772.61 162.041 1774.76 161.783 1776.2 162.917C1777.64 164.051 1777.9 166.2 1776.77 167.644C1775.63 169.088 1773.48 169.346 1772.04 168.212C1770.48 166.983 1770.34 164.929 1771.47 163.485Z" fill="#067BC8"/>
<path d="M1411.41 88.332C1413.3 85.9252 1416.73 85.512 1419.14 87.4024C1421.55 89.2928 1421.96 92.7306 1420.07 95.1374C1418.18 97.5441 1414.74 97.9572 1412.34 96.0668C1409.83 94.2968 1409.52 90.7387 1411.41 88.332Z" fill="#067BC8"/>
<path d="M1574.2 132.482C1576.47 129.594 1580.55 129.104 1583.44 131.372C1586.32 133.641 1586.82 137.723 1584.55 140.611C1582.28 143.499 1578.2 143.99 1575.31 141.721C1572.42 139.453 1572.02 135.25 1574.2 132.482Z" fill="#067BC8"/>
<path d="M1772.98 236.149C1768.02 240.097 1767.2 247.317 1771.15 252.276C1775.1 257.235 1782.32 258.054 1787.28 254.106C1792.23 250.158 1793.05 242.938 1789.11 237.979C1785.16 233.02 1777.94 232.201 1772.98 236.149Z" fill="#067BC8"/>
<path d="M1498.84 44.1102C1496.45 42.2309 1492.99 42.6471 1491.11 45.0397C1489.23 47.4323 1489.64 50.8953 1492.04 52.7746C1494.43 54.6538 1497.89 54.2377 1499.77 51.845C1501.65 49.4524 1501.24 45.9894 1498.84 44.1102Z" fill="white"/>
<path d="M1680.01 293.81C1681.99 291.283 1685.74 290.723 1688.38 292.803C1691.03 294.882 1691.47 298.535 1689.39 301.182C1687.41 303.709 1683.66 304.269 1681.01 302.189C1678.36 300.11 1677.93 296.457 1680.01 293.81Z" fill="white"/>
<path d="M1788.23 332.896C1790.78 329.647 1795.42 329.2 1798.55 331.657C1801.79 334.209 1802.24 338.842 1799.79 341.97C1797.23 345.219 1792.6 345.667 1789.47 343.21C1786.22 340.658 1785.77 336.025 1788.23 332.896Z" fill="#067BC8"/>
<path d="M1768.95 323.007C1766.69 321.232 1763.42 321.625 1761.65 323.885C1759.87 326.145 1760.27 329.415 1762.53 331.19C1764.79 332.965 1768.06 332.572 1769.83 330.312C1771.61 328.053 1771.21 324.782 1768.95 323.007Z" fill="#F1A300"/>
<path d="M1455.9 132.967C1457.98 130.319 1461.76 129.975 1464.28 131.96C1466.93 134.039 1467.27 137.812 1465.29 140.339C1463.21 142.987 1459.44 143.331 1456.91 141.346C1454.29 139.481 1453.82 135.614 1455.9 132.967Z" fill="#F1A300"/>
<path d="M1838.95 397.639C1840.65 395.473 1843.87 395.086 1846.04 396.787C1848.21 398.488 1848.59 401.711 1846.89 403.877C1845.19 406.043 1841.97 406.431 1839.8 404.729C1837.64 403.028 1837.25 399.805 1838.95 397.639Z" fill="white"/>
<path d="M1874.43 374.303C1874.43 374.303 1868.29 371.131 1868.98 367.447C1869.58 363.876 1876.49 362.325 1875.77 359.736C1874.96 357.261 1874.26 354.875 1875.24 351.053C1876.13 347.344 1891.92 351.107 1892.77 355.635C1893.62 360.163 1893.33 362.874 1892.3 368.863C1891.27 374.852 1882.64 376.712 1879.28 376.088C1875.82 375.577 1874.43 374.303 1874.43 374.303Z" fill="#F1A300"/>
<path d="M1882.2 349.908C1878.63 349.308 1875.56 349.471 1875.24 351.053C1874.35 354.762 1872.64 353.423 1871.38 355.736C1870.53 357.278 1868.48 359.892 1873.18 363.032C1873.86 363.567 1869.39 365.751 1869.07 367.333C1868.83 368.802 1869.61 370.149 1870.77 371.244L1871.06 371.106C1871.06 371.106 1871.04 368.331 1873.17 367.251C1875.31 366.172 1876.17 366.48 1876.94 364.329C1877.71 362.179 1876.44 356.774 1876.44 356.774L1880.91 357.163L1879.59 350.428L1881.43 354.631L1882.2 349.908Z" fill="white" fill-opacity="0.19"/>
<path d="M1873.16 368.899C1873.16 368.899 1878.73 368.127 1879.31 366.926C1879.88 365.724 1880.17 362.089 1880.17 362.089C1880.17 362.089 1878.49 366.098 1876.62 366.837C1874.75 367.575 1873.16 368.899 1873.16 368.899Z" fill="black" fill-opacity="0.12"/>
<path d="M1892.19 368.775C1893.22 362.785 1893.39 359.986 1892.65 355.547C1892.39 354.24 1890.78 352.788 1888.6 351.814C1887.22 355.686 1885.51 359.492 1885.21 360.352C1884.74 361.643 1883.63 366.098 1882.66 368.273C1882.11 369.677 1877.28 372.315 1872.95 373.144C1873.75 373.768 1874.41 374.101 1874.41 374.101C1874.41 374.101 1875.7 375.489 1879.16 375.999C1882.55 376.826 1891.16 374.764 1892.19 368.775Z" fill="black" fill-opacity="0.12"/>
<path d="M1893.25 369.058C1892.13 375.16 1883.38 377.653 1879.06 376.834C1875.8 376.299 1874.21 375.05 1873.76 374.693C1872.76 374.092 1867.23 370.847 1867.91 367.163C1868.28 365.061 1869.79 364.777 1871.92 363.697C1873.56 362.78 1869.71 360.67 1869.52 359.973C1869.36 359.478 1870.55 356.556 1870.27 355.972C1869.4 353.813 1873.53 353.934 1874.29 350.858C1874.61 349.276 1877 348.578 1880.64 348.861C1885.63 349.29 1893.17 352.089 1893.9 355.603C1894.46 360.269 1894.19 363.182 1893.25 369.058ZM1875.31 373.889C1875.42 373.978 1876.47 374.985 1879.41 375.455C1882.14 375.949 1890.27 374.252 1891.26 368.782C1892.23 363.109 1892.49 360.196 1891.75 355.757C1891.37 353.436 1885.42 350.962 1880.63 350.509C1879.79 350.403 1876.68 350.16 1876.42 351.426C1875.72 354.185 1871.9 354.129 1872.76 356.085C1873.03 356.669 1870.96 359.08 1871.14 359.778C1871.65 361.465 1876.65 362.82 1874.43 364.013C1872.5 365.068 1870.36 366.148 1870.13 367.617C1869.57 370.668 1875.17 373.597 1875.17 373.597L1875.31 373.889Z" fill="#B78112"/>
<path d="M1555.46 330.827C1556.72 331.086 1558.14 330.916 1559.31 330.364C1560.98 329.649 1566.68 324.025 1566.87 322.15C1567.07 319.553 1565.32 317.809 1566 315.772C1566.65 313.532 1567.08 311.113 1565.21 308.354C1563.33 305.596 1556.48 303.333 1555.22 303.998C1553.96 304.664 1550.93 306.88 1549.04 307.416C1547.15 307.952 1544.54 308.471 1543.63 310.33C1542.72 312.188 1541.8 314.769 1543.62 317.122C1545.45 319.475 1549.85 319.256 1550.54 320.716C1551.14 322.29 1551.21 328.044 1553.17 329.764C1553.85 330.3 1554.62 330.722 1555.46 330.827Z" fill="#F1A300"/>
<path d="M1542.71 312.91C1542.79 312.797 1544.87 310.386 1545.34 310.021C1546.28 309.29 1548.93 309.898 1550.04 310.588C1551.15 311.278 1553.9 316.195 1554.38 315.83C1554.67 315.692 1553.79 313.533 1552.87 311.894C1552.32 310.726 1553.1 309.5 1554.32 309.354C1555.33 309.232 1556.37 309.313 1557.17 309.938C1559.19 311.341 1559.49 312.128 1559.41 313.167C1559.37 313.687 1557.69 315.123 1557.99 315.91C1558.29 316.697 1564.24 318.246 1565.6 321.89C1565.9 322.677 1562.34 328.147 1562.03 329.007C1562.88 328.391 1566.78 323.188 1566.89 322.352C1567.09 319.755 1564.8 317.768 1566.02 315.974C1568.36 312.297 1567.11 311.316 1565.23 308.557C1563.36 305.798 1556.5 303.535 1555.24 304.201C1553.98 304.866 1550.96 307.082 1549.07 307.618C1547.18 308.154 1544.56 308.674 1543.65 310.532C1543.21 311.1 1542.9 311.961 1542.71 312.91Z" fill="black" fill-opacity="0.12"/>
<path d="M1543.62 317.122C1545.45 319.475 1549.85 319.256 1550.54 320.716C1551.14 322.29 1551.21 328.044 1553.17 329.764C1553.97 330.389 1554.74 330.811 1555.46 330.827C1556.72 331.086 1558.14 330.916 1559.31 330.364C1559.61 330.226 1559.9 330.088 1560.19 329.95C1558.29 329.56 1557.91 327.24 1556.68 326.461C1554.57 325.171 1555.46 317.964 1555.46 317.964L1549.69 317.113C1549.57 317.746 1549.01 318.225 1548.37 318.095C1547.22 317.925 1545.41 317.422 1544.48 316.505C1543.06 315.029 1542.76 313.316 1542.73 313.114C1542.47 314.38 1542.64 315.8 1543.62 317.122Z" fill="black" fill-opacity="0.1"/>
<path d="M1564.38 306.602C1564.95 307.048 1565.43 307.608 1565.79 308.079C1567.19 310.278 1568.97 312.225 1567.83 313.905C1567.29 314.587 1566.87 315.358 1566.63 315.902C1566.35 316.965 1566.65 317.752 1566.97 318.742C1567.3 319.732 1567.64 320.925 1567.5 322.28C1567.22 324.268 1561.63 329.982 1559.59 330.948C1558.22 331.525 1556.71 331.809 1555.33 331.46C1554.38 331.266 1553.4 330.868 1552.81 330.219C1551.08 328.678 1550.72 323.062 1550.37 321.869C1550.23 321.577 1550.18 321.171 1550.04 320.879C1549.88 320.384 1548.82 320.1 1547.75 319.816C1546.26 319.378 1544.34 318.786 1543.24 317.374C1541.05 314.551 1542.53 311.491 1543.18 309.973C1544.08 308.115 1546.27 307.441 1548.07 307.019C1548.36 306.881 1548.56 306.856 1548.77 306.832C1549.96 306.483 1551.87 305.225 1553.21 304.445C1553.89 304.056 1554.47 303.78 1554.85 303.528C1557.08 302.335 1561.54 304.371 1564.38 306.602ZM1555.5 330.308C1556.56 330.592 1557.87 330.332 1559.15 329.869C1561.6 328.854 1566.38 323.238 1566.46 322.199C1566.63 321.047 1566.31 320.057 1565.89 319.18C1565.45 318.101 1565.1 316.908 1565.57 315.618C1565.79 314.871 1566.41 314.076 1566.83 313.305C1567.88 311.738 1565.86 310.335 1564.83 308.606C1563.07 305.937 1557.11 303.463 1555.47 304.38C1555.09 304.632 1554.5 304.908 1553.83 305.297C1552.39 306.19 1550.49 307.448 1549.09 307.822C1548.89 307.846 1548.6 307.984 1548.3 308.122C1546.62 308.634 1544.73 309.17 1544.06 310.484C1543.18 312.546 1542.41 314.697 1543.98 316.668C1544.94 317.788 1546.54 318.315 1547.92 318.664C1549.3 319.013 1550.48 319.386 1550.81 320.376C1550.94 320.668 1550.99 321.074 1551.13 321.366C1551.48 322.559 1551.82 327.971 1553.3 329.132C1554 329.87 1554.75 330.089 1555.5 330.308Z" fill="#B78112"/>
<path d="M1322.2 50.9734C1323.47 51.2328 1324.89 51.0622 1326.05 50.5102C1327.72 49.7958 1333.42 44.171 1333.61 42.2964C1333.81 39.6995 1332.06 37.955 1332.74 35.918C1333.4 33.6781 1333.83 31.2597 1331.95 28.5009C1330.08 25.742 1323.22 23.4791 1321.96 24.1447C1320.7 24.8104 1317.68 27.0263 1315.78 27.5622C1313.89 28.0981 1311.28 28.6179 1310.37 30.4764C1309.46 32.3349 1308.54 34.9157 1310.37 37.2688C1312.19 39.6219 1316.59 39.402 1317.28 40.8627C1317.88 42.4369 1317.96 48.1905 1319.91 49.9106C1320.5 50.5598 1321.36 50.868 1322.2 50.9734Z" fill="#F1A300"/>
<path d="M1309.45 33.0579C1309.54 32.9443 1311.61 30.5337 1312.08 30.1685C1313.02 29.4379 1315.67 30.0462 1316.78 30.7358C1317.89 31.4254 1320.65 36.3427 1321.12 35.9774C1321.41 35.8394 1320.53 33.6809 1319.61 32.0418C1319.06 30.8733 1319.84 29.6478 1321.06 29.5016C1322.07 29.3797 1323.11 29.4606 1323.91 30.0854C1325.93 31.489 1326.23 32.2761 1326.15 33.3148C1326.11 33.8342 1324.43 35.2709 1324.73 36.058C1325.03 36.8451 1330.98 38.3941 1332.34 42.0376C1332.64 42.8248 1329.08 48.2949 1328.77 49.1552C1329.62 48.5383 1333.53 43.3358 1333.63 42.5C1333.83 39.9031 1331.54 37.9153 1332.76 36.1216C1335.1 32.4451 1333.85 31.4633 1331.97 28.7044C1330.1 25.9456 1323.24 23.6826 1321.98 24.3483C1320.73 25.0139 1317.7 27.2298 1315.81 27.7657C1313.92 28.3016 1311.3 28.8215 1310.4 30.68C1309.95 31.2482 1309.64 32.1084 1309.45 33.0579Z" fill="black" fill-opacity="0.28"/>
<path d="M1310.37 37.2695C1312.19 39.6226 1316.59 39.4028 1317.28 40.8634C1317.97 42.324 1317.96 48.1913 1319.91 49.9114C1320.71 50.5361 1321.48 50.958 1322.2 50.9741C1323.47 51.2336 1324.89 51.0629 1326.06 50.5109C1326.35 50.3729 1326.64 50.2349 1326.93 50.0969C1325.03 49.7077 1324.65 47.3868 1323.43 46.6079C1321.32 45.318 1322.2 38.1116 1322.2 38.1116L1316.44 37.2604C1316.31 37.8934 1315.75 38.3723 1315.11 38.2426C1313.96 38.0723 1312.15 37.5695 1311.22 36.6527C1309.81 35.176 1309.5 33.4637 1309.47 33.2608C1309.12 34.6404 1309.38 35.9469 1310.37 37.2695Z" fill="white" fill-opacity="0.27"/>
<path d="M1331.12 26.7474C1331.69 27.1936 1332.17 27.7535 1332.53 28.2241C1333.93 30.4231 1335.71 32.3704 1334.57 34.0504C1334.04 34.7322 1333.61 35.5032 1333.37 36.0469C1333.09 37.1101 1333.39 37.8972 1333.71 38.8872C1334.04 39.8772 1334.39 41.0701 1334.24 42.4253C1333.97 44.4136 1328.37 50.1276 1326.33 51.0936C1324.96 51.67 1323.45 51.9543 1322.07 51.6056C1321.12 51.411 1320.15 51.0135 1319.55 50.3644C1317.82 48.8228 1317.46 43.2072 1317.11 42.0143C1316.97 41.7222 1316.92 41.3164 1316.78 41.0243C1316.62 40.5293 1315.56 40.2454 1314.5 39.9615C1313 39.5236 1311.08 38.9315 1309.98 37.5196C1307.79 34.6959 1309.28 31.6363 1309.92 30.1187C1310.83 28.2601 1313.01 27.5862 1314.81 27.1639C1315.1 27.0259 1315.31 27.0015 1315.51 26.9771C1316.7 26.628 1318.61 25.3698 1319.96 24.5905C1320.63 24.2009 1321.21 23.9249 1321.59 23.6733C1323.82 22.48 1328.28 24.5162 1331.12 26.7474ZM1322.35 50.5425C1323.42 50.8263 1324.72 50.5664 1326.01 50.1036C1328.46 49.0888 1333.23 43.4724 1333.32 42.4336C1333.49 41.2812 1333.16 40.2912 1332.75 39.4148C1332.31 38.3356 1331.96 37.1427 1332.42 35.8523C1332.64 35.1057 1333.27 34.3103 1333.69 33.5393C1334.73 31.9729 1332.71 30.5693 1331.68 28.841C1329.92 26.1714 1323.96 23.6972 1322.32 24.6145C1321.94 24.8661 1321.36 25.1421 1320.69 25.5318C1319.25 26.4247 1317.34 27.6828 1315.95 28.0564C1315.74 28.0807 1315.45 28.2188 1315.16 28.3568C1313.47 28.8683 1311.58 29.4042 1310.92 30.719C1310.03 32.7804 1309.26 34.931 1310.84 36.9027C1311.79 38.0225 1313.4 38.5497 1314.78 38.8984C1316.16 39.2471 1317.34 39.6202 1317.66 40.6102C1317.8 40.9024 1317.85 41.3081 1317.99 41.6003C1318.34 42.7931 1318.68 48.2059 1320.15 49.3661C1320.75 50.0152 1321.4 50.3478 1322.35 50.5425Z" fill="#BA7E00"/>
<path d="M1665.57 393.011C1664.26 393.271 1663 393.937 1662.08 394.87C1660.79 396.055 1657.47 403.554 1657.98 405.242C1658.7 407.831 1660.97 408.691 1661.03 410.947C1661.1 413.203 1661.71 415.702 1664.41 417.641C1667.11 419.58 1674.46 419.108 1675.47 418.061C1676.48 417.014 1678.46 413.792 1680.07 412.672C1681.57 411.463 1683.97 410.042 1684.05 408.078C1684.21 406.001 1684.18 403.225 1681.64 401.781C1678.99 400.248 1674.99 402.066 1673.92 400.857C1672.85 399.648 1670.65 394.252 1668.19 393.417C1667.19 392.816 1666.38 392.914 1665.57 393.011Z" fill="#F1A300"/>
<path d="M1683.91 405.213C1683.82 405.327 1682.94 408.313 1682.5 408.882C1681.9 409.88 1679.17 410.31 1677.9 410.051C1676.64 409.791 1672.3 406.197 1672.05 406.741C1671.87 406.968 1673.51 408.623 1674.79 409.808C1675.72 410.725 1675.49 412.194 1674.32 412.746C1673.44 413.16 1672.45 413.485 1671.5 413.29C1669.06 412.657 1668.58 412.098 1668.25 411.108C1668.21 410.702 1669.2 408.73 1668.61 408.081C1668.13 407.521 1661.93 408.163 1659.22 405.299C1658.63 404.649 1659.93 398.319 1660.01 397.281C1659.41 398.279 1657.57 404.366 1657.78 405.266C1658.5 407.855 1661.28 408.755 1660.83 410.971C1660.01 415.288 1661.5 415.726 1664.21 417.665C1666.91 419.604 1674.26 419.132 1675.27 418.085C1676.27 417.038 1678.25 413.816 1679.87 412.696C1681.37 411.487 1683.77 410.066 1683.84 408.102C1684.04 407.153 1684.12 406.114 1683.91 405.213Z" fill="black" fill-opacity="0.18"/>
<path d="M1681.51 401.488C1678.85 399.955 1674.85 401.773 1673.78 400.564C1672.71 399.355 1670.52 393.959 1668.05 393.124C1667.19 392.816 1666.26 392.824 1665.45 392.921C1664.15 393.181 1662.89 393.847 1661.97 394.78C1661.79 395.008 1661.41 395.259 1661.23 395.486C1663.15 395.153 1664.43 397.263 1665.79 397.409C1668.2 397.839 1669.96 404.728 1669.96 404.728L1675.68 403.526C1675.61 402.918 1675.94 402.26 1676.55 402.187C1677.65 401.951 1679.57 401.618 1680.88 402.284C1682.74 403.192 1683.63 404.629 1683.86 404.807C1683.62 403.703 1682.96 402.446 1681.51 401.488Z" fill="#82672E" fill-opacity="0.38"/>
<path d="M1665.89 418.801C1665.14 418.582 1664.6 418.339 1664.14 417.982C1662.01 416.489 1659.69 415.223 1660.17 413.21C1660.37 412.261 1660.59 411.514 1660.51 410.906C1660.39 409.891 1659.89 409.129 1659.18 408.39C1658.56 407.538 1657.74 406.711 1657.37 405.315C1656.84 403.424 1660.06 396.039 1661.63 394.513C1662.73 393.352 1664.1 392.776 1665.4 392.516C1666.42 392.394 1667.34 392.386 1668.2 392.694C1670.35 393.465 1672.72 398.634 1673.45 399.575C1673.59 399.867 1673.82 400.045 1674.16 400.313C1674.41 400.695 1675.63 400.548 1676.64 400.426C1678.18 400.345 1680.21 400.101 1681.66 401.059C1684.65 402.86 1684.55 406.268 1684.34 407.94C1684.18 410.017 1682.38 411.365 1680.77 412.485C1680.48 412.623 1680.3 412.85 1680.21 412.964C1679.18 413.808 1677.84 415.512 1676.86 416.762C1676.41 417.33 1675.96 417.898 1675.7 418.239C1674.29 420.26 1669.42 419.92 1665.89 418.801ZM1665.73 393.506C1664.62 393.741 1663.46 394.293 1662.54 395.227C1660.5 397.118 1658.24 403.976 1658.56 404.966C1658.8 406.069 1659.51 406.808 1660.12 407.66C1660.85 408.601 1661.58 409.542 1661.73 410.759C1661.83 411.571 1661.52 412.431 1661.32 413.381C1660.94 415.28 1663.26 415.823 1664.94 416.959C1667.53 418.809 1673.94 419.067 1675.19 417.477C1675.46 417.136 1675.82 416.681 1676.35 415.999C1677.43 414.636 1678.65 412.842 1679.88 411.974C1680.06 411.746 1680.35 411.608 1680.44 411.495C1681.86 410.399 1683.47 409.279 1683.59 407.721C1683.73 405.44 1683.55 403.095 1681.44 401.805C1680.21 401.026 1678.59 401.221 1677.06 401.303C1675.64 401.473 1674.31 401.53 1673.6 400.792C1673.37 400.614 1673.12 400.232 1672.89 400.054C1672.16 399.112 1669.93 394.236 1668.1 393.53C1667.26 393.425 1666.54 393.408 1665.73 393.506Z" fill="#9D6A00"/>
</g>
</g>
<defs>
<filter id="filter0_f_1366_3361" x="-587" y="-438" width="1717" height="1717" filterUnits="userSpaceOnUse" color-interpolation-filters="sRGB">
<feFlood flood-opacity="0" result="BackgroundImageFix"/>
<feBlend mode="normal" in="SourceGraphic" in2="BackgroundImageFix" result="shape"/>
<feGaussianBlur stdDeviation="250" result="effect1_foregroundBlur_1366_3361"/>
</filter>
<filter id="filter1_f_1366_3361" x="1201" y="-150" width="1323" height="1323" filterUnits="userSpaceOnUse" color-interpolation-filters="sRGB">
<feFlood flood-opacity="0" result="BackgroundImageFix"/>
<feBlend mode="normal" in="SourceGraphic" in2="BackgroundImageFix" result="shape"/>
<feGaussianBlur stdDeviation="250" result="effect1_foregroundBlur_1366_3361"/>
</filter>
</defs>
</svg>
