<svg width="1920" height="1431" viewBox="0 0 1920 1431" fill="none" xmlns="http://www.w3.org/2000/svg">
<path d="M142.761 473.5C315.261 445 343.927 225.333 315.261 214.5L324.261 198C330.794 194.437 338.741 195.527 344.383 200.38C508.729 341.753 1059.3 347.779 1316.26 304C1856.26 212 2046.26 167.5 2046.26 206.5C2046.26 237.7 2029.93 1096.5 2003.76 1317C698.961 1606.2 101.761 1277.5 -33.7392 1077C-41.4059 910.333 -141.139 553.4 -122.739 517C-99.7393 471.5 -44.8148 504.49 142.761 473.5Z" fill="url(#paint0_linear_1467_3432)"/>
<g opacity="0.8" filter="url(#filter0_d_1467_3432)">
<path d="M291.779 226.692L348.816 172.874C350.804 170.991 352.319 168.665 353.239 166.086C354.159 163.506 354.456 160.746 354.108 158.03C353.76 155.314 352.776 152.719 351.235 150.455C349.695 148.191 347.642 146.322 345.244 145.001L258.338 97.4758L223.811 128.16L263.717 220.885C264.808 223.488 266.516 225.785 268.694 227.579C270.873 229.373 273.455 230.609 276.218 231.181C278.982 231.753 281.843 231.643 284.554 230.861C287.265 230.079 289.745 228.648 291.779 226.692Z" fill="#0963C6"/>
<path opacity="0.45" d="M330.714 189.792L304.807 166.604L303.698 122.296L330.371 136.912C334.246 149.925 339.642 168.596 342.016 179.143L330.714 189.792Z" fill="black" fill-opacity="0.5"/>
<path opacity="0.45" d="M252.162 193.949L244.988 177.315L251.119 177.397L309.502 210.004L293.807 224.801C286.885 220.001 264.329 203.096 252.162 193.949Z" fill="black" fill-opacity="0.5"/>
<path d="M337.248 197.224C330.352 152.44 300.4 63.1179 173.045 17.6309C169.87 16.4996 166.44 16.2859 163.148 17.0142C159.857 17.7425 156.837 19.3834 154.436 21.7487C152.034 24.1141 150.347 27.1082 149.569 30.3881C148.79 33.6679 148.952 37.1006 150.034 40.293C166.785 89.7375 210.905 181.739 313.9 217.006C316.817 217.977 319.934 218.18 322.952 217.597C325.97 217.014 328.788 215.664 331.133 213.676C333.478 211.689 335.273 209.132 336.344 206.251C337.415 203.369 337.726 200.261 337.248 197.224Z" fill="#FFCC49"/>
<path d="M286.369 189.778C292.998 187.176 307.728 160.873 308.595 153.237C309.224 147.442 299.994 116.253 295.425 101.23C317.301 129.139 331.679 162.177 337.194 197.206C337.672 200.243 337.36 203.351 336.29 206.233C335.219 209.114 333.424 211.671 331.079 213.658C328.733 215.646 325.916 216.996 322.898 217.579C319.88 218.162 316.762 217.959 313.846 216.988C287.713 208.09 263.345 194.675 241.85 177.354C243.464 177.906 279.939 192.328 286.369 189.778Z" fill="#CE9B1D"/>
<path d="M306.762 214.416L335.532 187.653L350.759 192.858C351.166 193.066 351.516 193.368 351.781 193.74C352.046 194.112 352.217 194.542 352.281 194.994C352.344 195.446 352.298 195.907 352.146 196.337C351.994 196.767 351.741 197.155 351.407 197.467L314.251 232.24C313.891 232.572 313.452 232.805 312.975 232.917C312.499 233.029 312.001 233.016 311.531 232.88C311.061 232.743 310.634 232.488 310.292 232.138C309.949 231.788 309.703 231.355 309.577 230.882L306.762 214.416Z" fill="#FCEE21"/>
<path opacity="0.63" d="M306.762 214.416L335.532 187.653L340.374 189.308C337.564 194.718 328.724 211.437 325.871 214.157C323.733 216.281 314.48 219.969 308.042 222.365L306.762 214.416Z" fill="black" fill-opacity="0.4"/>
<path d="M274.484 156.6C274.055 155.731 273.915 154.748 274.086 153.795C274.257 152.841 274.73 151.968 275.435 151.303C276.14 150.639 277.04 150.219 278.002 150.104C278.964 149.99 279.938 150.188 280.779 150.668C294.941 158.815 316.207 171.493 318.829 175.514C321.45 179.535 324.24 193.349 325.714 201.695C325.844 202.441 325.784 203.208 325.54 203.925C325.295 204.642 324.875 205.286 324.317 205.798C323.759 206.311 323.081 206.674 322.346 206.856C321.611 207.038 320.842 207.033 320.109 206.84C313.415 205.062 303.407 201.731 298.041 196.772C292.675 191.813 281.516 170.661 274.484 156.6Z" fill="#0963C6"/>
<path opacity="0.45" d="M274.484 156.599C274.021 155.663 273.903 154.594 274.151 153.579C274.399 152.565 274.996 151.67 275.839 151.053C280.866 160.343 288.235 173.859 289.675 175.974C291.898 179.228 305.019 189.542 305.019 189.542L285.077 159.98L324.897 205.051C324.364 205.811 323.61 206.39 322.738 206.71C321.866 207.029 320.917 207.074 320.019 206.839C313.325 205.061 303.316 201.73 297.95 196.771C292.585 191.812 281.516 170.661 274.484 156.599Z" fill="black" fill-opacity="0.5"/>
<path d="M150.034 40.293C148.952 37.1006 148.79 33.6679 149.569 30.3881C150.347 27.1082 152.034 24.1141 154.436 21.7487C156.837 19.3834 159.857 17.7425 163.148 17.0142C166.44 16.2859 169.87 16.4996 173.045 17.6309C185.969 22.2269 198.597 27.6171 210.856 33.7708L164.091 75.2051C158.782 63.8285 154.09 52.1742 150.034 40.293Z" fill="#0963C6"/>
<g style="mix-blend-mode:multiply" opacity="0.39">
<path d="M151.514 25.5054C153.599 21.8663 156.903 19.0808 160.842 17.6402C164.782 16.1996 169.103 16.1965 173.045 17.6316C217.977 33.682 250.739 55.1871 274.668 78.2703L151.514 25.5054Z" fill="black" fill-opacity="0.3"/>
</g>
<path d="M223.147 130.367C228.872 131.894 234.922 131.689 240.531 129.778C246.141 127.867 251.058 124.336 254.66 119.631C258.263 114.927 260.39 109.259 260.773 103.346C261.155 97.4323 259.776 91.5382 256.809 86.4085C253.842 81.2788 249.421 77.1438 244.105 74.5263C238.788 71.9088 232.815 70.9263 226.941 71.7029C221.066 72.4796 215.553 74.9805 211.1 78.8896C206.646 82.7986 203.451 87.9404 201.919 93.6648C199.872 101.346 200.957 109.527 204.937 116.409C208.917 123.291 215.467 128.311 223.147 130.367Z" fill="#2457A6"/>
<path d="M251.331 108.393C247.471 119.685 235.188 125.71 223.895 121.85C212.603 117.99 206.578 105.706 210.438 94.4139C214.298 83.1216 226.582 77.0965 237.874 80.9566C249.166 84.8167 255.191 97.1002 251.331 108.393Z" fill="#C5F1FF"/>
<path d="M209.895 106.547L248.147 114.365C245.69 117.632 242.357 120.136 238.534 121.585C234.711 123.034 230.555 123.368 226.55 122.549C222.544 121.731 218.853 119.793 215.905 116.96C212.957 114.128 210.873 110.517 209.895 106.547Z" fill="#FAFEFF"/>
<path d="M210.013 95.831L210.206 95.2661L245.947 102.165L209.47 103.397C209.193 100.863 209.377 98.2997 210.013 95.831Z" fill="#FAFEFF"/>
<path d="M250.305 91.9662C251.345 94.0804 252.041 96.3469 252.367 98.6804C241.332 97.9129 221.648 95.8117 210.428 94.5302C211.521 91.148 213.453 88.0976 216.043 85.6628L250.305 91.9662Z" fill="#FAFEFF"/>
</g>
<defs>
<filter id="filter0_d_1467_3432" x="129.084" y="0.557617" width="245.165" height="256.435" filterUnits="userSpaceOnUse" color-interpolation-filters="sRGB">
<feFlood flood-opacity="0" result="BackgroundImageFix"/>
<feColorMatrix in="SourceAlpha" type="matrix" values="0 0 0 0 0 0 0 0 0 0 0 0 0 0 0 0 0 0 127 0" result="hardAlpha"/>
<feOffset dy="4"/>
<feGaussianBlur stdDeviation="10"/>
<feComposite in2="hardAlpha" operator="out"/>
<feColorMatrix type="matrix" values="0 0 0 0 0 0 0 0 0 0 0 0 0 0 0 0 0 0 0.2 0"/>
<feBlend mode="normal" in2="BackgroundImageFix" result="effect1_dropShadow_1467_3432"/>
<feBlend mode="normal" in="SourceGraphic" in2="effect1_dropShadow_1467_3432" result="shape"/>
</filter>
<linearGradient id="paint0_linear_1467_3432" x1="998.259" y1="474" x2="1019.26" y2="1328" gradientUnits="userSpaceOnUse">
<stop stop-color="white"/>
<stop offset="1" stop-color="white" stop-opacity="0"/>
</linearGradient>
</defs>
</svg>
