<svg width="726" height="568" viewBox="0 0 726 568" fill="none" xmlns="http://www.w3.org/2000/svg">
<path d="M53.5 500C53.5 500 83.8031 423.98 154.714 424.406C205.443 424.714 240.465 450.892 256.285 465.623C257.386 466.664 258.758 467.468 260.303 467.978C261.847 468.488 263.526 468.69 265.216 468.57C266.906 468.451 268.566 468.011 270.074 467.285C271.583 466.558 272.903 465.563 273.938 464.37C282.744 454.141 298.873 440.91 322.688 442.044C325.49 442.198 328.334 441.698 330.918 440.597C333.502 439.496 335.73 437.836 337.369 435.791C345.067 426.046 361.211 409.563 386.076 403.527C397.055 400.745 408.464 399.961 419.548 401.227C430.632 402.493 441.136 405.78 450.364 410.869C451.156 411.3 452.064 411.564 453.018 411.64C453.972 411.716 454.946 411.602 455.866 411.308C456.785 411.014 457.626 410.547 458.323 409.943C459.02 409.339 459.555 408.614 459.886 407.824C462.436 401.636 468.724 393.286 484.147 387.844C511.287 378.282 536.761 371.303 545.948 344.231C560.613 300.961 613.785 313.018 625.343 253.706C636.9 194.393 600.577 146.47 600.577 146.47C600.577 146.47 584.792 120.206 597.201 115.172C605.327 111.871 621.09 132.651 631.038 147.336C636.549 155.505 642.293 163.522 648.323 171.4C655.066 180.072 663.627 192.811 666.161 203.335C667.643 209.594 668.067 216.053 667.419 222.519C667.1 226.24 668.066 229.894 670.196 233.027C672.326 236.16 675.526 238.632 679.397 240.135C692.344 245.377 702.815 254.049 709.347 264.937C720.545 282.692 714.916 302.54 709.729 314.14C708.543 316.791 708.409 319.654 709.348 322.272C710.287 324.89 712.246 327.112 714.912 328.581C726.439 334.992 743.341 348.958 744.171 376.036C744.645 385.971 742.197 395.995 737.049 405.196C731.9 414.397 737.024 424.263 727.5 430.5C725.198 432.003 728.528 435.709 727.5 438.001C726.472 440.292 730.416 450.176 731 452.5C733.774 463.202 736.413 487.68 724.5 502L68.5261 599.387L53.5 500Z" fill="white"/>
<path d="M53.5 500C53.5 500 88.7819 465.637 158 468.501C227.218 471.365 252.15 530.042 252.15 530.042C257.467 523.236 264.228 517.33 272.049 512.661C279.87 507.992 288.596 504.651 297.73 502.83C329.21 496.396 355.881 511.456 355.881 511.456C355.881 511.456 362.789 465.945 403.454 453.334C444.119 440.724 475.208 464.891 475.208 464.891C475.208 464.891 476.445 431.862 508.481 421.527C540.517 411.192 563.004 431.619 563.004 431.619C563.004 431.619 587.894 416.424 606.831 422.221C625.767 428.018 626.194 446.235 626.194 446.235C626.194 446.235 653.962 441.775 652.905 465.862C652.905 465.862 727.423 486.652 737.5 523.001L68.5001 600.501L53.5 500Z" fill="#D4E1F3"/>
<path d="M709.726 314.119C714.913 302.519 720.534 282.629 709.343 264.917C702.812 254.028 692.341 245.357 679.394 240.114C675.523 238.611 672.323 236.139 670.192 233.006C668.062 229.874 667.096 226.219 667.416 222.499C668.063 216.032 667.64 209.573 666.158 203.314C663.624 192.79 655.031 180.167 648.319 171.379C642.239 163.51 636.495 155.493 631.034 147.316C621.104 132.583 605.222 111.715 597.1 115.19C615.416 136.896 658.985 194.851 655.381 251.486C655.381 251.486 685.993 258.846 691.993 286.25C693.446 292.051 693.43 298.121 691.945 304.062C690.461 310.004 687.543 315.683 683.38 320.728C682.58 321.673 682.034 322.751 681.784 323.878C681.535 325.005 681.589 326.151 681.942 327.227C682.296 328.304 682.939 329.281 683.822 330.085C684.705 330.889 685.805 331.498 687.036 331.864C706.461 337.605 742.049 352.747 743.505 386.366C744.054 382.902 744.298 379.423 744.235 375.959C743.518 348.927 726.514 334.979 714.976 328.505C712.309 327.049 710.342 324.84 709.391 322.233C708.439 319.625 708.557 316.769 709.726 314.119Z" fill="#0051BA" fill-opacity="0.17"/>
<path d="M608.147 71.2061L624.993 108.987L576.494 130.611L559.648 92.8305C550.569 72.4664 550.141 50.975 551.463 35.9305C551.699 33.577 551.86 31.4172 552.141 29.5253C553.293 21.3025 554.567 16.2369 554.567 16.2369C554.567 16.2369 561.825 19.9071 571.291 27.0896C583.366 36.1604 598.993 51.0357 608.147 71.2061Z" fill="#F1A300"/>
<path d="M608.147 71.2059L624.992 108.987L614.274 113.766C597.658 118.283 574.729 99.2763 561.467 69.534C556.21 57.7443 553.188 45.9221 552.535 35.4524C552.428 33.4121 552.321 31.3717 552.408 29.4056C553.56 21.1828 554.835 16.1173 554.835 16.1173C554.835 16.1173 562.093 19.7875 571.559 26.9699C583.366 36.1603 598.993 51.0355 608.147 71.2059Z" fill="#FCA51B"/>
<path d="M598.45 82.5966C601.436 89.2954 598.467 97.0437 591.842 99.8368C585.144 102.824 577.395 99.8541 574.602 93.2296C571.615 86.5309 574.585 78.7825 581.209 75.9894C587.834 73.1963 595.582 76.1659 598.45 82.5966Z" fill="#D5E5E6"/>
<path d="M592.724 102.174C584.953 105.639 575.849 102.15 572.191 94.3048C568.726 86.5343 572.215 77.4299 580.06 73.7715C587.83 70.3068 596.935 73.796 600.593 81.6408C604.252 89.4855 600.688 98.7836 592.724 102.174ZM582.165 78.1329C576.806 80.5224 574.356 86.9148 576.746 92.2738C579.135 97.6328 585.528 100.083 590.887 97.6932C596.246 95.3038 598.695 88.9113 596.306 83.5523C593.917 78.1934 587.524 75.7435 582.165 78.1329Z" fill="#0070BA"/>
<path d="M593.013 82.2903C594.208 84.9697 593.02 88.0691 590.34 89.2638C587.661 90.4586 584.562 89.2708 583.367 86.5913C582.172 83.9118 583.36 80.8124 586.039 79.6177C588.719 78.423 591.818 79.6108 593.013 82.2903Z" fill="white"/>
<path d="M580.985 49.9109C583.375 55.2699 581.073 61.2749 575.714 63.6644C570.355 66.0538 564.35 63.7524 561.961 58.3935C559.571 53.0345 561.873 47.0295 567.232 44.64C572.397 42.1764 578.596 44.552 580.985 49.9109Z" fill="#D5E5E6"/>
<path d="M576.431 65.2718C570.268 68.0197 562.907 65.1986 560.159 59.0358C557.412 52.873 560.233 45.512 566.395 42.7641C572.558 40.0163 579.919 42.8373 582.667 49.0002C585.341 55.3567 582.594 62.524 576.431 65.2718ZM567.949 46.2474C563.661 48.159 561.731 53.1954 563.643 57.4826C565.554 61.7698 570.591 63.7 574.878 61.7884C579.165 59.8769 581.095 54.8404 579.184 50.5533C577.272 46.2661 572.236 44.3359 567.949 46.2474Z" fill="#0070BA"/>
<path d="M576.472 49.5137C577.428 51.6573 576.463 54.1755 574.393 54.9375C572.25 55.8933 569.731 54.9282 568.969 52.8589C568.013 50.7153 568.979 48.1971 571.048 47.435C573.192 46.4792 575.71 47.4443 576.472 49.5137Z" fill="white"/>
<path d="M548.592 6.80662L559.835 32.0024L562.866 30.6499L551.623 5.4541L548.592 6.80662Z" fill="#0070BA"/>
<path d="M552.526 3.01339C553.243 4.62108 552.426 6.75187 550.819 7.4687C549.211 8.18553 547.08 7.36892 546.17 5.68699C545.453 4.0793 546.269 1.9485 547.951 1.03795C549.679 0.589071 551.616 1.33146 552.526 3.01339Z" fill="#F1A300"/>
<path d="M571.292 27.0896L551.463 35.9306C551.699 33.577 551.86 31.4172 552.141 29.5254C553.293 21.3025 554.568 16.237 554.568 16.237C554.568 16.237 561.825 19.9071 571.292 27.0896Z" fill="#0070BA"/>
<path d="M619.024 111.809C620.099 114.221 619.06 116.933 616.722 117.814L586.906 131.269C584.494 132.345 581.782 131.305 580.901 128.968C579.825 126.556 580.865 123.844 583.202 122.963L612.944 109.702C615.162 108.552 617.874 109.591 619.024 111.809Z" fill="#B5C5C6"/>
<path d="M589.937 138.43C589.715 139.011 589.492 139.592 588.956 139.831C588.614 140.144 588.346 140.263 588.078 140.383C584.327 142.055 576.756 138.043 573.863 135.157L559.696 119.952C556.683 116.799 557.035 111.824 560.189 108.811C560.873 108.185 561.483 107.752 562.287 107.394C562.823 107.155 563.553 106.99 564.088 106.751C566.665 106.406 569.257 107.177 571.136 109.23L585.304 124.435C587.929 127.44 591.154 134.675 589.937 138.43Z" fill="#0070BA"/>
<path d="M589.938 138.429C589.596 138.742 589.253 139.056 588.911 139.369L588.643 139.488C584.892 141.161 577.408 135.182 575.274 131.476L564.841 113.482C563.618 111.458 563.466 108.956 564.208 107.019C566.784 106.673 569.377 107.445 571.256 109.498L585.423 124.702C587.929 127.44 591.155 134.675 589.938 138.429Z" fill="white" fill-opacity="0.12"/>
<path d="M619.338 125.481C619.919 125.704 620.5 125.927 621.036 125.688C621.497 125.643 621.765 125.523 622.033 125.404C625.785 123.731 627.86 115.418 627.646 111.337L625.805 90.6367C625.472 86.2881 621.536 83.2246 617.187 83.5575C616.264 83.6479 615.534 83.8127 614.731 84.1711C614.195 84.41 613.585 84.8427 613.049 85.0816C611.07 86.767 609.911 89.211 610.182 91.9809L612.024 112.681C612.312 116.568 615.538 123.803 619.338 125.481Z" fill="#0070BA"/>
<path d="M619.338 125.481C619.799 125.436 620.261 125.391 620.723 125.346L620.991 125.226C624.742 123.554 625.296 113.991 623.966 109.927L617.553 90.1402C616.865 87.8771 615.105 86.0919 613.168 85.3495C611.189 87.0349 610.031 89.4789 610.302 92.2488L612.144 112.949C612.312 116.568 615.538 123.803 619.338 125.481Z" fill="white" fill-opacity="0.12"/>
<path d="M610.043 124.808C611.596 128.291 612.171 136.065 608.956 137.499L608.688 137.618C605.427 138.59 600.149 133.234 598.641 130.213L591.369 114.985C589.935 111.77 591.346 108.089 594.561 106.655L594.829 106.536C597.97 105.296 601.457 106.632 602.965 109.654L610.043 124.808Z" fill="#0070BA"/>
<path d="M610.043 124.808C611.596 128.291 612.171 136.065 608.956 137.499L608.688 137.618L594.829 106.536C597.97 105.296 601.457 106.632 602.965 109.654L610.043 124.808Z" fill="white" fill-opacity="0.12"/>
</svg>
