<svg xmlns="http://www.w3.org/2000/svg" viewBox="0 0 459.47 95.5"><defs><style>.cls-1{fill:#2557a6;}.cls-2{fill:#fff;}.cls-3{fill:#fca311;}.cls-4{fill:#ffcc49;}</style></defs><title>Logo Aku Pintar - white text_1</title><g id="Layer_2" data-name="Layer 2"><g id="Layer_1-2" data-name="Layer 1"><path class="cls-1" d="M111.42,77.7l.88-20.82s14.82-.43,19.61-1.64c20.9-5.24,27.87-28.78,15.52-44.7C142.94,4.76,134.17,0,126.6,0L86,0V95.42h5.3c1.39,0,6.67-.45,8.43-1.21C106.58,91.24,110.13,88.92,111.42,77.7Z"/><path class="cls-2" d="M177,53.26a16.84,16.84,0,0,1,5.12,12.33V79.38A3.4,3.4,0,0,1,181,82a3.53,3.53,0,0,1-2.58,1.1h-.09a3.5,3.5,0,0,1-2.57-1.1,3.37,3.37,0,0,1-1.1-2.57q-3.45,3.66-10,3.67a17.48,17.48,0,0,1-17.46-17.46A17.44,17.44,0,0,1,177,53.26ZM157.5,58.5a10.08,10.08,0,1,0,7.12-2.93A9.72,9.72,0,0,0,157.5,58.5Z"/><path class="cls-2" d="M195,35.72a3.67,3.67,0,0,1,3.66,3.67v21h1.15a9.84,9.84,0,0,0,6.76-2.57,9.7,9.7,0,0,0,3.21-6.37A3.66,3.66,0,0,1,211,49.11a3.5,3.5,0,0,1,2.46-1h.09a3.52,3.52,0,0,1,2.7,1.21,3.57,3.57,0,0,1,1,2.46,2.87,2.87,0,0,1,0,.39q-.72,7.61-5.81,11.39a15.31,15.31,0,0,1,4.91,5.55,17.1,17.1,0,0,1,2.33,8.69v1.55A3.36,3.36,0,0,1,217.5,82a3.53,3.53,0,0,1-2.58,1.1h-.09a3.5,3.5,0,0,1-2.57-1.1,3.36,3.36,0,0,1-1.09-2.57V77.83a10,10,0,0,0-10-10h-2.49V79.38A3.36,3.36,0,0,1,197.56,82a3.5,3.5,0,0,1-2.57,1.1h-.09a3.53,3.53,0,0,1-2.58-1.1,3.36,3.36,0,0,1-1.09-2.57v-40a3.67,3.67,0,0,1,3.67-3.67Z"/><path class="cls-2" d="M234.26,68.41a7.23,7.23,0,1,0,14.46,0V51.84a3.72,3.72,0,0,1,3.69-3.7h.06a3.44,3.44,0,0,1,2.58,1.09,3.56,3.56,0,0,1,1.09,2.61V68.41a14.65,14.65,0,0,1-29.3,0V51.84a3.72,3.72,0,0,1,3.67-3.7h.09a3.72,3.72,0,0,1,3.66,3.7Z"/><path class="cls-2" d="M276.86,95.5a3.72,3.72,0,0,1-3.67-3.67V65.53A17.46,17.46,0,1,1,303,77.93a16.84,16.84,0,0,1-12.33,5.12q-6.61,0-10-3V91.83A3.72,3.72,0,0,1,277,95.5Zm20.87-22.88a10,10,0,0,0-14.2-14.21,10,10,0,0,0,7.12,17.15A9.63,9.63,0,0,0,297.73,72.62Z"/><path class="cls-2" d="M321.2,44.2a4.05,4.05,0,0,1-3-1.24,4.22,4.22,0,1,1,6-6,4.14,4.14,0,0,1,0,6A4,4,0,0,1,321.2,44.2Zm0,3.94a3.41,3.41,0,0,1,2.57,1.09,3.56,3.56,0,0,1,1.09,2.61V79.38a3.74,3.74,0,0,1-3.66,3.67h-.06a3.57,3.57,0,0,1-2.61-1.1,3.36,3.36,0,0,1-1.09-2.57V51.84a3.56,3.56,0,0,1,1.09-2.61,3.6,3.6,0,0,1,2.61-1.09Z"/><path class="cls-2" d="M342.63,79.38A3.36,3.36,0,0,1,341.54,82a3.53,3.53,0,0,1-2.58,1.1h-.09A3.5,3.5,0,0,1,336.3,82a3.36,3.36,0,0,1-1.09-2.57V62.81a14.65,14.65,0,0,1,29.3,0V79.38a3.76,3.76,0,0,1-3.67,3.67h-.06a3.57,3.57,0,0,1-2.61-1.1,3.4,3.4,0,0,1-1.09-2.57V62.81a7.23,7.23,0,1,0-14.45,0Z"/><path class="cls-2" d="M377.42,35.72a3.67,3.67,0,0,1,3.67,3.67v8.75h4.54a3.72,3.72,0,0,1,3.67,3.7v.06a3.36,3.36,0,0,1-1.09,2.57,3.53,3.53,0,0,1-2.58,1.1h-4.54v18A2,2,0,0,0,381.7,75a2,2,0,0,0,1.51.6h2.42a3.72,3.72,0,0,1,3.67,3.7v.06A3.36,3.36,0,0,1,388.21,82a3.53,3.53,0,0,1-2.58,1.1h-2.42a9.51,9.51,0,0,1-9.54-9.52V39.39a3.67,3.67,0,0,1,3.66-3.67Z"/><path class="cls-2" d="M426.43,53.26a16.84,16.84,0,0,1,5.12,12.33V79.38A3.4,3.4,0,0,1,430.46,82a3.53,3.53,0,0,1-2.58,1.1h-.09a3.5,3.5,0,0,1-2.57-1.1,3.37,3.37,0,0,1-1.1-2.57q-3.45,3.66-10,3.67a17.5,17.5,0,0,1-17.46-17.46,17.44,17.44,0,0,1,29.79-12.33ZM407,58.5a10.08,10.08,0,1,0,7.12-2.93A9.72,9.72,0,0,0,407,58.5Z"/><path class="cls-2" d="M455.8,48.14a3.56,3.56,0,0,1,2.6,1.09,3.62,3.62,0,0,1,1.07,2.61v.06a3.48,3.48,0,0,1-1.07,2.57,3.53,3.53,0,0,1-2.6,1.1h-1.73a5.73,5.73,0,0,0-4.21,1.72,5.9,5.9,0,0,0-1.73,4.21V79.38A3.36,3.36,0,0,1,447,82a3.5,3.5,0,0,1-2.57,1.1h-.09A3.53,3.53,0,0,1,441.8,82a3.36,3.36,0,0,1-1.09-2.57V61.5a13.19,13.19,0,0,1,3.91-9.45,12.9,12.9,0,0,1,9.45-3.91Z"/><path class="cls-3" d="M70.38,0A18.27,18.27,0,0,0,58.1,5.09L5,73.74c-7.19,8.39-8.31,21.68,8.32,21.68h67V0Z"/><path class="cls-2" d="M72.67,94.53a2.93,2.93,0,0,1-.38,1H36.77c.56-3.06,1.12-6.33,1.74-9.39a8.86,8.86,0,0,0-.42-4.74c-.91-2.62-1.91-5.21-2.78-7.85a31.27,31.27,0,0,1-1.51-7c-.16-1.74-.31-3.48-.34-5.25a43.47,43.47,0,0,1,1-9.54c.21-1,.4-1.95.61-2.93a2.89,2.89,0,0,1,2.66-2.31,1.76,1.76,0,0,1,1.93,1.94c0,2,.11,3.91.26,5.85a40.94,40.94,0,0,0,1.31,8,20.83,20.83,0,0,0,5,9.39,2,2,0,0,0,1.54.56H62.7c2,0,5.15,1.36,6,3a37.14,37.14,0,0,1,1.91,4.9C70.92,81.16,73.44,90.67,72.67,94.53Z"/><circle class="cls-2" cx="55.5" cy="57.63" r="9.85"/><path class="cls-3" d="M135.85,27.06c-12.6,2.23-14.4,4-16.63,16.64-2.22-12.61-4-14.41-16.63-16.64,12.6-2.22,14.41-4,16.63-16.63C121.45,23,123.25,24.84,135.85,27.06Z"/><path class="cls-4" d="M119.22,10.43V27.06H102.59C115.19,24.84,117,23,119.22,10.43Z"/><path class="cls-3" d="M134.65,19.39c-3.15-2.43-3.94-2.47-7.31-.34,2.43-3.15,2.47-3.94.34-7.31,3.15,2.43,3.95,2.47,7.31.34C132.56,15.23,132.52,16,134.65,19.39Z"/><path class="cls-4" d="M135,12.08l-3.82,3.49-3.49-3.83C130.83,14.17,131.63,14.21,135,12.08Z"/><path class="cls-3" d="M53.55,56.54A.56.56,0,0,1,53,56a1.34,1.34,0,0,0-2.67,0,.57.57,0,0,1-1.14,0,2.47,2.47,0,0,1,4.94,0A.57.57,0,0,1,53.55,56.54Z"/><path class="cls-3" d="M50.73,59.25a4.76,4.76,0,0,0,9.51,0Z"/><path class="cls-3" d="M61,56.54a.56.56,0,0,1-.56-.57,1.34,1.34,0,0,0-2.67,0,.57.57,0,1,1-1.13,0,2.47,2.47,0,0,1,4.93,0A.56.56,0,0,1,61,56.54Z"/></g></g></svg>